<?plantuml 1.2026.1?><svg xmlns="http://www.w3.org/2000/svg" xmlns:xlink="http://www.w3.org/1999/xlink" contentStyleType="text/css" data-diagram-type="SEQUENCE" height="1450px" preserveAspectRatio="none" style="width:1438px;height:1450px;background:#FEFEFE;" version="1.1" viewBox="0 0 1438 1450" width="1438.5417px" zoomAndPan="magnify"><title>Video Link Decoding &#8212; 8 Steps</title><defs><linearGradient id="gbemr2m5zrmij0" x1="50%" x2="50%" y1="0%" y2="100%"><stop offset="0%" stop-color="#59B6EC"/><stop offset="100%" stop-color="#2FA4E7"/></linearGradient><linearGradient id="gbemr2m5zrmij1" x1="50%" x2="50%" y1="0%" y2="100%"><stop offset="0%" stop-color="#35638F"/><stop offset="100%" stop-color="#033C73"/></linearGradient></defs><g><rect fill="#FEFEFE" height="1450" style="stroke:none;stroke-width:1.0417;" width="1438.5417" x="0" y="0"/><rect fill="none" height="47.168" rx="4.1667" ry="4.1667" style="stroke:#BABDBF;stroke-width:1.0417;" width="386.5234" x="530.6112" y="20.8333"/><text fill="#2FA4E7" font-family="'Verdana'" font-size="20.8333" font-weight="bold" lengthAdjust="spacing" textLength="363.6068" x="542.0695" y="51.6296">Video Link Decoding &#8212; 8 Steps</text><g><title>ParseController</title><rect fill="#EDF0F2" height="1123.8932" style="stroke:#2683B9;stroke-width:1.0417;" width="10.4167" x="353.6387" y="209.6029"/></g><g><title>ParserService</title><rect fill="#EDF0F2" height="1044.7917" style="stroke:#2683B9;stroke-width:1.0417;" width="10.4167" x="563.4776" y="249.1536"/></g><g><title>VideoDecoderService</title><rect fill="#EDF0F2" height="684.7656" style="stroke:#2683B9;stroke-width:1.0417;" width="10.4167" x="886.8073" y="426.0417"/></g><g><title>Kodik CDN</title><rect fill="#EDF0F2" height="39.5508" style="stroke:#2683B9;stroke-width:1.0417;" width="10.4167" x="1244.8517" y="511.3932"/></g><g><title>Kodik CDN</title><rect fill="#EDF0F2" height="39.5508" style="stroke:#2683B9;stroke-width:1.0417;" width="10.4167" x="1244.8517" y="696.6471"/></g><g><title>Kodik CDN</title><rect fill="#EDF0F2" height="39.5508" style="stroke:#2683B9;stroke-width:1.0417;" width="10.4167" x="1244.8517" y="911.0026"/></g><rect fill="none" height="897.0052" rx="4.1667" ry="4.1667" style="stroke:#59B6EC;stroke-width:1.0417;" width="966.7898" x="461.1643" y="358.431"/><g class="participant-lifeline" data-entity-uid="part1" data-qualified-name="Consumer" id="part1-lifeline"><g><title>Consumer</title><rect fill="#000000" fill-opacity="0.00000" height="1184.2773" width="8.3333" x="51.6612" y="167.9688"/><line style="stroke:#BABDBF;stroke-width:1.0417;stroke-dasharray:5.2083,5.2083;" x1="55.2083" x2="55.2083" y1="167.9688" y2="1352.2461"/></g></g><g class="participant-lifeline" data-entity-uid="part2" data-qualified-name="PC" id="part2-lifeline"><g><title>ParseController</title><rect fill="#000000" fill-opacity="0.00000" height="1184.2773" width="8.3333" x="354.6804" y="167.9688"/><line style="stroke:#BABDBF;stroke-width:1.0417;stroke-dasharray:5.2083,5.2083;" x1="358.6131" x2="358.6131" y1="167.9688" y2="1352.2461"/></g></g><g class="participant-lifeline" data-entity-uid="part3" data-qualified-name="PS" id="part3-lifeline"><g><title>ParserService</title><rect fill="#000000" fill-opacity="0.00000" height="1184.2773" width="8.3333" x="564.5192" y="167.9688"/><line style="stroke:#BABDBF;stroke-width:1.0417;stroke-dasharray:5.2083,5.2083;" x1="568.456" x2="568.456" y1="167.9688" y2="1352.2461"/></g></g><g class="participant-lifeline" data-entity-uid="part4" data-qualified-name="KVDS" id="part4-lifeline"><g><title>VideoDecoderService</title><rect fill="#000000" fill-opacity="0.00000" height="1184.2773" width="8.3333" x="887.8489" y="167.9688"/><line style="stroke:#BABDBF;stroke-width:1.0417;stroke-dasharray:5.2083,5.2083;" x1="891.6351" x2="891.6351" y1="167.9688" y2="1352.2461"/></g></g><g class="participant-lifeline" data-entity-uid="part5" data-qualified-name="CDN" id="part5-lifeline"><g><title>Kodik CDN</title><rect fill="#000000" fill-opacity="0.00000" height="1184.2773" width="8.3333" x="1245.8934" y="167.9688"/><line style="stroke:#BABDBF;stroke-width:1.0417;stroke-dasharray:5.2083,5.2083;" x1="1249.4609" x2="1249.4609" y1="167.9688" y2="1352.2461"/></g></g><g class="participant-lifeline" data-entity-uid="part6" data-qualified-name="DB" id="part6-lifeline"><g><title>MySQL</title><rect fill="#000000" fill-opacity="0.00000" height="1184.2773" width="8.3333" x="1383.5775" y="167.9688"/><line style="stroke:#BABDBF;stroke-width:1.0417;stroke-dasharray:5.2083,5.2083;" x1="1387.1175" x2="1387.1175" y1="167.9688" y2="1352.2461"/></g></g><g class="participant participant-head" data-entity-uid="part1" data-qualified-name="Consumer" id="part1-head"><text fill="#343A40" font-family="'Verdana'" font-size="12.5" lengthAdjust="spacing" textLength="63.739" x="20.8333" y="159.8124">Consumer</text><ellipse cx="55.8278" cy="88.8346" fill="url(#gbemr2m5zrmij0)" rx="8.3333" ry="8.3333" style="stroke:#2FA4E7;stroke-width:1.0417;"/><path d="M55.8278,97.168 L55.8278,125.293 M42.2862,105.5013 L69.3695,105.5013 M55.8278,125.293 L42.2862,140.918 M55.8278,125.293 L69.3695,140.918" fill="none" style="stroke:#2FA4E7;stroke-width:1.0417;"/></g><g class="participant participant-tail" data-entity-uid="part1" data-qualified-name="Consumer" id="part1-tail"><text fill="#343A40" font-family="'Verdana'" font-size="12.5" lengthAdjust="spacing" textLength="63.739" x="20.8333" y="1368.0155">Consumer</text><ellipse cx="55.8278" cy="1385.5469" fill="url(#gbemr2m5zrmij0)" rx="8.3333" ry="8.3333" style="stroke:#2FA4E7;stroke-width:1.0417;"/><path d="M55.8278,1393.8802 L55.8278,1422.0052 M42.2862,1402.2135 L69.3695,1402.2135 M55.8278,1422.0052 L42.2862,1437.6302 M55.8278,1422.0052 L69.3695,1437.6302" fill="none" style="stroke:#2FA4E7;stroke-width:1.0417;"/></g><g class="participant participant-head" data-entity-uid="part2" data-qualified-name="PC" id="part2-head"><rect fill="url(#gbemr2m5zrmij0)" height="39.5508" rx="4.1667" ry="4.1667" style="stroke:#2FA4E7;stroke-width:1.0417;" width="121.3013" x="298.1964" y="127.3763"/><text fill="#FFFFFF" font-family="'Verdana'" font-size="12.5" lengthAdjust="spacing" textLength="96.3013" x="310.6964" y="151.4791">ParseController</text></g><g class="participant participant-tail" data-entity-uid="part2" data-qualified-name="PC" id="part2-tail"><rect fill="url(#gbemr2m5zrmij0)" height="39.5508" rx="4.1667" ry="4.1667" style="stroke:#2FA4E7;stroke-width:1.0417;" width="121.3013" x="298.1964" y="1351.2044"/><text fill="#FFFFFF" font-family="'Verdana'" font-size="12.5" lengthAdjust="spacing" textLength="96.3013" x="310.6964" y="1375.3072">ParseController</text></g><g class="participant participant-head" data-entity-uid="part3" data-qualified-name="PS" id="part3-head"><rect fill="url(#gbemr2m5zrmij0)" height="39.5508" rx="4.1667" ry="4.1667" style="stroke:#2FA4E7;stroke-width:1.0417;" width="110.8765" x="513.2477" y="127.3763"/><text fill="#FFFFFF" font-family="'Verdana'" font-size="12.5" lengthAdjust="spacing" textLength="85.8765" x="525.7477" y="151.4791">ParserService</text></g><g class="participant participant-tail" data-entity-uid="part3" data-qualified-name="PS" id="part3-tail"><rect fill="url(#gbemr2m5zrmij0)" height="39.5508" rx="4.1667" ry="4.1667" style="stroke:#2FA4E7;stroke-width:1.0417;" width="110.8765" x="513.2477" y="1351.2044"/><text fill="#FFFFFF" font-family="'Verdana'" font-size="12.5" lengthAdjust="spacing" textLength="85.8765" x="525.7477" y="1375.3072">ParserService</text></g><g class="participant participant-head" data-entity-uid="part4" data-qualified-name="KVDS" id="part4-head"><rect fill="#FFA07A" height="39.5508" rx="4.1667" ry="4.1667" style="stroke:#2FA4E7;stroke-width:1.0417;" width="159.0942" x="812.4685" y="127.3763"/><text fill="#FFFFFF" font-family="'Verdana'" font-size="12.5" lengthAdjust="spacing" textLength="134.0942" x="824.9685" y="151.4791">VideoDecoderService</text></g><g class="participant participant-tail" data-entity-uid="part4" data-qualified-name="KVDS" id="part4-tail"><rect fill="#FFA07A" height="39.5508" rx="4.1667" ry="4.1667" style="stroke:#2FA4E7;stroke-width:1.0417;" width="159.0942" x="812.4685" y="1351.2044"/><text fill="#FFFFFF" font-family="'Verdana'" font-size="12.5" lengthAdjust="spacing" textLength="134.0942" x="824.9685" y="1375.3072">VideoDecoderService</text></g><g class="participant participant-head" data-entity-uid="part5" data-qualified-name="CDN" id="part5-head"><rect fill="#F08080" height="54.1016" rx="4.1667" ry="4.1667" style="stroke:#2FA4E7;stroke-width:1.0417;" width="111.615" x="1194.2525" y="112.8255"/><text fill="#FFFFFF" font-family="'Verdana'" font-size="12.5" lengthAdjust="spacing" textLength="66.1682" x="1216.9759" y="136.9283">Kodik CDN</text><text fill="#FFFFFF" font-family="'Verdana'" font-size="12.5" lengthAdjust="spacing" textLength="86.615" x="1206.7525" y="151.4791">solodcdn.com</text></g><g class="participant participant-tail" data-entity-uid="part5" data-qualified-name="CDN" id="part5-tail"><rect fill="#F08080" height="54.1016" rx="4.1667" ry="4.1667" style="stroke:#2FA4E7;stroke-width:1.0417;" width="111.615" x="1194.2525" y="1351.2044"/><text fill="#FFFFFF" font-family="'Verdana'" font-size="12.5" lengthAdjust="spacing" textLength="66.1682" x="1216.9759" y="1375.3072">Kodik CDN</text><text fill="#FFFFFF" font-family="'Verdana'" font-size="12.5" lengthAdjust="spacing" textLength="86.615" x="1206.7525" y="1389.858">solodcdn.com</text></g><g class="participant participant-head" data-entity-uid="part6" data-qualified-name="DB" id="part6-head"><text fill="#343A40" font-family="'Verdana'" font-size="12.5" lengthAdjust="spacing" textLength="42.9199" x="1363.1592" y="159.8124">MySQL</text><path d="M1368.9941,105.5013 C1368.9941,95.0846 1387.7441,95.0846 1387.7441,95.0846 C1387.7441,95.0846 1406.4941,95.0846 1406.4941,105.5013 L1406.4941,132.5846 C1406.4941,143.0013 1387.7441,143.0013 1387.7441,143.0013 C1387.7441,143.0013 1368.9941,143.0013 1368.9941,132.5846 L1368.9941,105.5013" fill="#90EE90" style="stroke:#2FA4E7;stroke-width:1.0417;"/><path d="M1368.9941,105.5013 C1368.9941,115.918 1387.7441,115.918 1387.7441,115.918 C1387.7441,115.918 1406.4941,115.918 1406.4941,105.5013" fill="none" style="stroke:#2FA4E7;stroke-width:1.0417;"/></g><g class="participant participant-tail" data-entity-uid="part6" data-qualified-name="DB" id="part6-tail"><text fill="#343A40" font-family="'Verdana'" font-size="12.5" lengthAdjust="spacing" textLength="42.9199" x="1363.1592" y="1368.0155">MySQL</text><path d="M1368.9941,1386.5885 C1368.9941,1376.1719 1387.7441,1376.1719 1387.7441,1376.1719 C1387.7441,1376.1719 1406.4941,1376.1719 1406.4941,1386.5885 L1406.4941,1413.6719 C1406.4941,1424.0885 1387.7441,1424.0885 1387.7441,1424.0885 C1387.7441,1424.0885 1368.9941,1424.0885 1368.9941,1413.6719 L1368.9941,1386.5885" fill="#90EE90" style="stroke:#2FA4E7;stroke-width:1.0417;"/><path d="M1368.9941,1386.5885 C1368.9941,1397.0052 1387.7441,1397.0052 1387.7441,1397.0052 C1387.7441,1397.0052 1406.4941,1397.0052 1406.4941,1386.5885" fill="none" style="stroke:#2FA4E7;stroke-width:1.0417;"/></g><g><title>ParseController</title><rect fill="#EDF0F2" height="1123.8932" style="stroke:#2683B9;stroke-width:1.0417;" width="10.4167" x="353.6387" y="209.6029"/></g><g><title>ParserService</title><rect fill="#EDF0F2" height="1044.7917" style="stroke:#2683B9;stroke-width:1.0417;" width="10.4167" x="563.4776" y="249.1536"/></g><g><title>VideoDecoderService</title><rect fill="#EDF0F2" height="684.7656" style="stroke:#2683B9;stroke-width:1.0417;" width="10.4167" x="886.8073" y="426.0417"/></g><g><title>Kodik CDN</title><rect fill="#EDF0F2" height="39.5508" style="stroke:#2683B9;stroke-width:1.0417;" width="10.4167" x="1244.8517" y="511.3932"/></g><g><title>Kodik CDN</title><rect fill="#EDF0F2" height="39.5508" style="stroke:#2683B9;stroke-width:1.0417;" width="10.4167" x="1244.8517" y="696.6471"/></g><g><title>Kodik CDN</title><rect fill="#EDF0F2" height="39.5508" style="stroke:#2683B9;stroke-width:1.0417;" width="10.4167" x="1244.8517" y="911.0026"/></g><g class="message" data-entity-1="part1" data-entity-2="part2" id="msg1"><polygon fill="#2FA4E7" points="341.1387,205.4362,351.5554,209.6029,341.1387,213.7695,345.3054,209.6029" style="stroke:#2FA4E7;stroke-width:1.0417;"/><line style="stroke:#2FA4E7;stroke-width:2.0833;" x1="55.8278" x2="347.3887" y1="209.6029" y2="209.6029"/><text fill="#343A40" font-family="'Verdana'" font-size="12.5" lengthAdjust="spacing" textLength="267.6025" x="68.3278" y="199.3632">POST /api/v1/parse/decode/58?force=false</text></g><g class="message" data-entity-1="part2" data-entity-2="part3" id="msg2"><polygon fill="#2FA4E7" points="550.9776,244.987,561.3942,249.1536,550.9776,253.3203,555.1442,249.1536" style="stroke:#2FA4E7;stroke-width:1.0417;"/><line style="stroke:#2FA4E7;stroke-width:2.0833;" x1="364.0554" x2="557.2276" y1="249.1536" y2="249.1536"/><text fill="#343A40" font-family="'Verdana'" font-size="12.5" lengthAdjust="spacing" textLength="141.1194" x="376.5554" y="238.914">decodeForContent(58)</text></g><g class="message" data-entity-1="part3" data-entity-2="part6" id="msg3"><polygon fill="#2FA4E7" points="1375.2441,299.0885,1385.6608,303.2552,1375.2441,307.4219,1379.4108,303.2552" style="stroke:#2FA4E7;stroke-width:1.0417;"/><line style="stroke:#2FA4E7;stroke-width:2.0833;" x1="573.8942" x2="1381.4941" y1="303.2552" y2="303.2552"/><text fill="#343A40" font-family="'Verdana'" font-size="12.5" lengthAdjust="spacing" textLength="240.7959" x="586.3942" y="278.4648">SELECT * FROM kodik_episode_variant</text><text fill="#343A40" font-family="'Verdana'" font-size="12.5" lengthAdjust="spacing" textLength="285.9985" x="586.3942" y="293.0155">WHERE content_id=58 AND mp4_link IS NULL</text></g><g class="message" data-entity-1="part6" data-entity-2="part3" id="msg4"><polygon fill="#2FA4E7" points="585.3526,338.6393,574.9359,342.806,585.3526,346.9727,581.1859,342.806" style="stroke:#2FA4E7;stroke-width:1.0417;"/><line style="stroke:#2FA4E7;stroke-width:2.0833;stroke-dasharray:2.0833,2.0833;" x1="579.1026" x2="1386.7025" y1="342.806" y2="342.806"/><text fill="#343A40" font-family="'Verdana'" font-size="12.5" lengthAdjust="spacing" textLength="236.2244" x="596.8109" y="332.5663">List&lt;KodikEpisodeVariant&gt; (pending)</text></g><path d="M465.331,358.431 L548.8637,358.431 L548.8637,375.0651 L538.4471,385.4818 L461.1643,385.4818 L461.1643,362.5977 A4.1667,4.1667 0 0 1 465.331,358.431" fill="#E9ECEF" style="stroke:#868E96;stroke-width:1.0417;"/><rect fill="none" height="897.0052" rx="4.1667" ry="4.1667" style="stroke:#59B6EC;stroke-width:1.0417;" width="966.7898" x="461.1643" y="358.431"/><text fill="#033C73" font-family="'Verdana'" font-size="12.5" font-weight="bold" lengthAdjust="spacing" textLength="30.4077" x="481.9977" y="376.2838">loop</text><text fill="#343A40" font-family="'Verdana'" font-size="12.5" font-weight="bold" lengthAdjust="spacing" textLength="333.5022" x="569.6971" y="377.3254">[for each pending variant (with request delay)]</text><g class="message" data-entity-1="part3" data-entity-2="part4" id="msg5"><polygon fill="#2FA4E7" points="874.3073,421.875,884.7239,426.0417,874.3073,430.2083,878.4739,426.0417" style="stroke:#2FA4E7;stroke-width:1.0417;"/><line style="stroke:#2FA4E7;stroke-width:2.0833;" x1="573.8942" x2="880.5573" y1="426.0417" y2="426.0417"/><text fill="#343A40" font-family="'Verdana'" font-size="12.5" lengthAdjust="spacing" textLength="114.6545" x="586.3942" y="415.802">decode(kodikLink)</text></g><path d="M784.375,443.75 L784.375,469.7917 A4.1667,4.1667 0 0 0 788.5417,473.9583 L1351.0417,473.9583 A4.1667,4.1667 0 0 0 1355.2083,469.7917 L1355.2083,450 L1344.7917,439.5833 L788.5417,439.5833 A4.1667,4.1667 0 0 0 784.375,443.75" fill="url(#gbemr2m5zrmij1)" style="stroke:#033C73;stroke-width:1.0417;"/><path d="M1344.7917,439.5833 L1344.7917,447.9167 A2.0833,2.0833 0 0 0 1346.875,450 L1355.2083,450 L1344.7917,439.5833" fill="url(#gbemr2m5zrmij1)" style="stroke:#033C73;stroke-width:1.0417;"/><text fill="#FFFFFF" font-family="'Verdana'" font-size="12.5" lengthAdjust="spacing" textLength="170.9473" x="979.9759" y="461.6028">Step 1-2: Load iframe page</text><g class="message" data-entity-1="part4" data-entity-2="part5" id="msg6"><polygon fill="#2FA4E7" points="1232.3517,507.2266,1242.7684,511.3932,1232.3517,515.5599,1236.5184,511.3932" style="stroke:#2FA4E7;stroke-width:1.0417;"/><line style="stroke:#2FA4E7;stroke-width:2.0833;" x1="897.2239" x2="1238.6017" y1="511.3932" y2="511.3932"/><text fill="#343A40" font-family="'Verdana'" font-size="12.5" lengthAdjust="spacing" textLength="217.2913" x="909.7239" y="501.1536">GET https://kodik.info/seria/{id}/...</text></g><g class="message" data-entity-1="part5" data-entity-2="part4" id="msg7"><polygon fill="#2FA4E7" points="908.6823,546.7773,898.2656,550.944,908.6823,555.1107,904.5156,550.944" style="stroke:#2FA4E7;stroke-width:1.0417;"/><line style="stroke:#2FA4E7;stroke-width:2.0833;stroke-dasharray:2.0833,2.0833;" x1="902.4323" x2="1249.0184" y1="550.944" y2="550.944"/><text fill="#343A40" font-family="'Verdana'" font-size="12.5" lengthAdjust="spacing" textLength="238.0798" x="920.1406" y="540.7043">HTML page with embedded JS params</text></g><path d="M796.875,568.6523 L796.875,609.2773 A4.1667,4.1667 0 0 0 801.0417,613.444 L981.25,613.444 A4.1667,4.1667 0 0 0 985.4167,609.2773 L985.4167,574.9023 L975,564.4857 L801.0417,564.4857 A4.1667,4.1667 0 0 0 796.875,568.6523" fill="url(#gbemr2m5zrmij1)" style="stroke:#033C73;stroke-width:1.0417;"/><path d="M975,564.4857 L975,572.819 A2.0833,2.0833 0 0 0 977.0833,574.9023 L985.4167,574.9023 L975,564.4857" fill="url(#gbemr2m5zrmij1)" style="stroke:#033C73;stroke-width:1.0417;"/><text fill="#FFFFFF" font-family="'Verdana'" font-size="12.5" lengthAdjust="spacing" textLength="136.5051" x="808.3333" y="586.5051">Step 3: Regex extract</text><text fill="#FFFFFF" font-family="'Verdana'" font-size="12.5" lengthAdjust="spacing" textLength="156.4087" x="808.3333" y="601.0559">urlParams, type, hash, id</text><path d="M784.375,629.0039 L784.375,655.0456 A4.1667,4.1667 0 0 0 788.5417,659.2122 L1351.0417,659.2122 A4.1667,4.1667 0 0 0 1355.2083,655.0456 L1355.2083,635.2539 L1344.7917,624.8372 L788.5417,624.8372 A4.1667,4.1667 0 0 0 784.375,629.0039" fill="url(#gbemr2m5zrmij1)" style="stroke:#033C73;stroke-width:1.0417;"/><path d="M1344.7917,624.8372 L1344.7917,633.1706 A2.0833,2.0833 0 0 0 1346.875,635.2539 L1355.2083,635.2539 L1344.7917,624.8372" fill="url(#gbemr2m5zrmij1)" style="stroke:#033C73;stroke-width:1.0417;"/><text fill="#FFFFFF" font-family="'Verdana'" font-size="12.5" lengthAdjust="spacing" textLength="188.678" x="971.1105" y="646.8567">Step 4: Load player JavaScript</text><g class="message" data-entity-1="part4" data-entity-2="part5" id="msg8"><polygon fill="#2FA4E7" points="1232.3517,692.4805,1242.7684,696.6471,1232.3517,700.8138,1236.5184,696.6471" style="stroke:#2FA4E7;stroke-width:1.0417;"/><line style="stroke:#2FA4E7;stroke-width:2.0833;" x1="897.2239" x2="1238.6017" y1="696.6471" y2="696.6471"/><text fill="#343A40" font-family="'Verdana'" font-size="12.5" lengthAdjust="spacing" textLength="184.8572" x="909.7239" y="686.4075">GET /assets/js/app.player_*.js</text></g><g class="message" data-entity-1="part5" data-entity-2="part4" id="msg9"><polygon fill="#2FA4E7" points="908.6823,732.0313,898.2656,736.1979,908.6823,740.3646,904.5156,736.1979" style="stroke:#2FA4E7;stroke-width:1.0417;"/><line style="stroke:#2FA4E7;stroke-width:2.0833;stroke-dasharray:2.0833,2.0833;" x1="902.4323" x2="1249.0184" y1="736.1979" y2="736.1979"/><text fill="#343A40" font-family="'Verdana'" font-size="12.5" lengthAdjust="spacing" textLength="142.5354" x="920.1406" y="725.9583">JavaScript source code</text></g><path d="M794.7917,753.9063 L794.7917,794.5313 A4.1667,4.1667 0 0 0 798.9583,798.6979 L983.3333,798.6979 A4.1667,4.1667 0 0 0 987.5,794.5313 L987.5,760.1563 L977.0833,749.7396 L798.9583,749.7396 A4.1667,4.1667 0 0 0 794.7917,753.9063" fill="url(#gbemr2m5zrmij1)" style="stroke:#033C73;stroke-width:1.0417;"/><path d="M977.0833,749.7396 L977.0833,758.0729 A2.0833,2.0833 0 0 0 979.1667,760.1563 L987.5,760.1563 L977.0833,749.7396" fill="url(#gbemr2m5zrmij1)" style="stroke:#033C73;stroke-width:1.0417;"/><text fill="#FFFFFF" font-family="'Verdana'" font-size="12.5" lengthAdjust="spacing" textLength="159.0332" x="806.25" y="771.759">Step 5: Extract POST URL</text><text fill="#FFFFFF" font-family="'Verdana'" font-size="12.5" lengthAdjust="spacing" textLength="160.5408" x="806.25" y="786.3098">via atob("...") in JS source</text><path d="M784.375,814.2578 L784.375,840.2995 A4.1667,4.1667 0 0 0 788.5417,844.4661 L1351.0417,844.4661 A4.1667,4.1667 0 0 0 1355.2083,840.2995 L1355.2083,820.5078 L1344.7917,810.0911 L788.5417,810.0911 A4.1667,4.1667 0 0 0 784.375,814.2578" fill="url(#gbemr2m5zrmij1)" style="stroke:#033C73;stroke-width:1.0417;"/><path d="M1344.7917,810.0911 L1344.7917,818.4245 A2.0833,2.0833 0 0 0 1346.875,820.5078 L1355.2083,820.5078 L1344.7917,810.0911" fill="url(#gbemr2m5zrmij1)" style="stroke:#033C73;stroke-width:1.0417;"/><text fill="#FFFFFF" font-family="'Verdana'" font-size="12.5" lengthAdjust="spacing" textLength="198.8159" x="966.0416" y="832.1106">Step 6: POST video info request</text><g class="message" data-entity-1="part4" data-entity-2="part5" id="msg10"><polygon fill="#2FA4E7" points="1232.3517,906.8359,1242.7684,911.0026,1232.3517,915.1693,1236.5184,911.0026" style="stroke:#2FA4E7;stroke-width:1.0417;"/><line style="stroke:#2FA4E7;stroke-width:2.0833;" x1="897.2239" x2="1238.6017" y1="911.0026" y2="911.0026"/><text fill="#343A40" font-family="'Verdana'" font-size="12.5" lengthAdjust="spacing" textLength="59.9365" x="909.7239" y="871.6614">POST /gvi</text><text fill="#343A40" font-family="'Verdana'" font-size="12.5" lengthAdjust="spacing" textLength="317.4194" x="909.7239" y="886.2122">Content-Type: application/x-www-form-urlencoded</text><text fill="#343A40" font-family="'Verdana'" font-size="12.5" lengthAdjust="spacing" textLength="261.6089" x="909.7239" y="900.7629">type, hash, id, urlParams, bad_user=false</text></g><g class="message" data-entity-1="part5" data-entity-2="part4" id="msg11"><polygon fill="#2FA4E7" points="908.6823,946.3867,898.2656,950.5534,908.6823,954.7201,904.5156,950.5534" style="stroke:#2FA4E7;stroke-width:1.0417;"/><line style="stroke:#2FA4E7;stroke-width:2.0833;stroke-dasharray:2.0833,2.0833;" x1="902.4323" x2="1249.0184" y1="950.5534" y2="950.5534"/><text fill="#343A40" font-family="'Verdana'" font-size="12.5" lengthAdjust="spacing" textLength="287.5" x="920.1406" y="940.3137">JSON {"links":{"720":[{"src":"encoded..."}]}}</text></g><path d="M743.75,968.2617 L743.75,1008.8867 A4.1667,4.1667 0 0 0 747.9167,1013.0534 L1034.375,1013.0534 A4.1667,4.1667 0 0 0 1038.5417,1008.8867 L1038.5417,974.5117 L1028.125,964.0951 L747.9167,964.0951 A4.1667,4.1667 0 0 0 743.75,968.2617" fill="#FFECB3" style="stroke:#033C73;stroke-width:1.0417;"/><path d="M1028.125,964.0951 L1028.125,972.4284 A2.0833,2.0833 0 0 0 1030.2083,974.5117 L1038.5417,974.5117 L1028.125,964.0951" fill="#FFECB3" style="stroke:#033C73;stroke-width:1.0417;"/><text fill="#FFFFFF" font-family="'Verdana'" font-size="12.5" lengthAdjust="spacing" textLength="263.2813" x="755.2083" y="986.1145">Step 7: ROT13 decode (shift +18 mod 26)</text><text fill="#FFFFFF" font-family="'Verdana'" font-size="12.5" lengthAdjust="spacing" textLength="87.7319" x="755.2083" y="1000.6653">"abc" -&gt; "stu"</text><path d="M772.9167,1028.6133 L772.9167,1069.2383 A4.1667,4.1667 0 0 0 777.0833,1073.4049 L1005.2083,1073.4049 A4.1667,4.1667 0 0 0 1009.375,1069.2383 L1009.375,1034.8633 L998.9583,1024.4466 L777.0833,1024.4466 A4.1667,4.1667 0 0 0 772.9167,1028.6133" fill="#FFECB3" style="stroke:#033C73;stroke-width:1.0417;"/><path d="M998.9583,1024.4466 L998.9583,1032.7799 A2.0833,2.0833 0 0 0 1001.0417,1034.8633 L1009.375,1034.8633 L998.9583,1024.4466" fill="#FFECB3" style="stroke:#033C73;stroke-width:1.0417;"/><text fill="#FFFFFF" font-family="'Verdana'" font-size="12.5" lengthAdjust="spacing" textLength="204.2053" x="784.375" y="1046.4661">Step 8: URL-safe Base64 decode</text><text fill="#FFFFFF" font-family="'Verdana'" font-size="12.5" lengthAdjust="spacing" textLength="182.6721" x="784.375" y="1061.0168">"-" -&gt; "+", "_" -&gt; "/", pad "="</text><g class="message" data-entity-1="part4" data-entity-2="part3" id="msg12"><polygon fill="#2FA4E7" points="585.3526,1106.6406,574.9359,1110.8073,585.3526,1114.974,581.1859,1110.8073" style="stroke:#2FA4E7;stroke-width:1.0417;"/><line style="stroke:#2FA4E7;stroke-width:2.0833;stroke-dasharray:2.0833,2.0833;" x1="579.1026" x2="890.9739" y1="1110.8073" y2="1110.8073"/><text fill="#343A40" font-family="'Verdana'" font-size="12.5" lengthAdjust="spacing" textLength="277.4963" x="596.8109" y="1100.5676">Map&lt;"720", "https://p12.solodcdn.com/..."&gt;</text></g><g class="message" data-entity-1="part3" data-entity-2="part3" id="msg13"><line style="stroke:#2FA4E7;stroke-width:2.0833;" x1="573.8942" x2="617.6442" y1="1164.9089" y2="1164.9089"/><line style="stroke:#2FA4E7;stroke-width:2.0833;" x1="617.6442" x2="617.6442" y1="1164.9089" y2="1178.4505"/><line style="stroke:#2FA4E7;stroke-width:2.0833;" x1="574.9359" x2="617.6442" y1="1178.4505" y2="1178.4505"/><polygon fill="#2FA4E7" points="585.3526,1174.2839,574.9359,1178.4505,585.3526,1182.6172,581.1859,1178.4505" style="stroke:#2FA4E7;stroke-width:1.0417;"/><text fill="#343A40" font-family="'Verdana'" font-size="12.5" lengthAdjust="spacing" textLength="119.2383" x="586.3942" y="1140.1184">selectBestQuality()</text><text fill="#343A40" font-family="'Verdana'" font-size="12.5" lengthAdjust="spacing" textLength="142.1509" x="586.3942" y="1154.6692">pick highest resolution</text></g><g class="message" data-entity-1="part3" data-entity-2="part6" id="msg14"><polygon fill="#2FA4E7" points="1375.2441,1242.9362,1385.6608,1247.1029,1375.2441,1251.2695,1379.4108,1247.1029" style="stroke:#2FA4E7;stroke-width:1.0417;"/><line style="stroke:#2FA4E7;stroke-width:2.0833;" x1="573.8942" x2="1381.4941" y1="1247.1029" y2="1247.1029"/><text fill="#343A40" font-family="'Verdana'" font-size="12.5" lengthAdjust="spacing" textLength="193.4387" x="586.3942" y="1207.7616">UPDATE kodik_episode_variant</text><text fill="#343A40" font-family="'Verdana'" font-size="12.5" lengthAdjust="spacing" textLength="311.7737" x="586.3942" y="1222.3124">SET mp4_link = ?, mp4_link_decoded_at = NOW()</text><text fill="#343A40" font-family="'Verdana'" font-size="12.5" lengthAdjust="spacing" textLength="86.676" x="586.3942" y="1236.8632">WHERE id = ?</text></g><g class="message" data-entity-1="part3" data-entity-2="part2" id="msg15"><polygon fill="#2FA4E7" points="375.5137,1289.7786,365.097,1293.9453,375.5137,1298.112,371.347,1293.9453" style="stroke:#2FA4E7;stroke-width:1.0417;"/><line style="stroke:#2FA4E7;stroke-width:2.0833;stroke-dasharray:2.0833,2.0833;" x1="369.2637" x2="567.6442" y1="1293.9453" y2="1293.9453"/><text fill="#343A40" font-family="'Verdana'" font-size="12.5" lengthAdjust="spacing" textLength="31.1951" x="386.972" y="1283.7056">done</text></g><g class="message" data-entity-1="part2" data-entity-2="part1" id="msg16"><polygon fill="#2FA4E7" points="67.2862,1329.3294,56.8695,1333.4961,67.2862,1337.6628,63.1195,1333.4961" style="stroke:#2FA4E7;stroke-width:1.0417;"/><line style="stroke:#2FA4E7;stroke-width:2.0833;stroke-dasharray:2.0833,2.0833;" x1="61.0362" x2="357.8054" y1="1333.4961" y2="1333.4961"/><text fill="#343A40" font-family="'Verdana'" font-size="12.5" lengthAdjust="spacing" textLength="45.8679" x="78.7445" y="1323.2564">200 OK</text></g><?plantuml-src bLNRSjf847tNL_JABpW15EDBA5Nib0qusHWRnyBEmx953Pe69eWPPMR0ThbSjH-nNxXViZqZOSEMK_72YpJJVRhFwOj-irES8wIe5nao6PYPa3dJR0uZbiucMYqaRwbCQTWwxRZ_ceN17mkKAHvhhMxxKv7E91e3ZI2mmcO8DuAZWgwGCsXZghYG4_Zdhx-X2Od5t0G1Ioq1jvGqYpdgW52jI4NEf8Nmacc3T6MroZBK8J03bwqNR7I2UYbIB2oIJGkVWW--QNTsqqvWgoicKvkmRAxafjiP9Jk3LljY80sHvocNzLJDlIkTbfujfLaMS6RPY1c4yFm--ThrDksJqkIJHfH1iA88jICY0J5Szf8-H2mNqN8doXsDYFiie_tcnx7IAHwEMMRGIIIMpABZ7f2h0qW8eB0-LTf9XD9MzflRQyO96IVEc3A98UbqEwq-l87Jgzuvp1ov8UR24C9moRGWpWFvxNFdgWDf0JSK_72_2SSNRPZdUyFCrV3t12wkkzs086khDBh2s0zUhKw1TrF07K4bH-aglXq4cL8v42b0bawXF8SoC5HkXPs2ThraBF7AsFrs0FGh2FXAhVXMVEwkemgJ9yBEAl17Kj6hMfBMxgpgonNxXeETMeCoLeo365F_8kHiWjx91w5WXV6dJX-crkOcZY8Vi2xaM4NKQe953u8_HlLwVJC-EVe31r1xplfp_xpheu0dYVCHSeuSlYJWHyXu9uuRE2_GM37OZU4A9tW7U6SrEGtaGcUN7gaAzZx7AaoPcLP1y5-giLTgaPFWTF-5BLcIQf7RdoWICMFGckYxeRxDwuNRy4tzktcL5C_uODI26XnSGVyd__qOEWNpOeAkhxe3kHGCc5MZIaXb2RT1IATl4UINAXoKixZqkyhLUTMAByXGJEraAGQo7BjQdqIFWGJ9HCgiK3AwgztUtjQetUSrAWxjHwB91tApEbLOAzo8yU62kgiS-LUfcVGku25qSsd2-25yttWNndyyX4QdOHoMGPqSZty-FhvMvAtJqqxhP7SbpNjgjbv_PxUSFQYOgHXRUBlJXBdYq3ZO7iYGZTBG2HGQkmXVWzgCNTLgXeqHJcXj7koL-0HMAw3UXbK8XyLpHCyvTMbuMA8N5LdjdtEMV_3aoMCrilbEexw-jTsqXaV_5U5vOnHxniCPp32r9rJzhmkM2NjV8OuvVTXWIjlSxIUD1BrmXLvtzbls-h9ztE_yRBqcD49Fg_GGFbQVteO5VpvabYukUjzSq68R2-vC0zgOnJvVVJwuaXYiaV7xlkNldpurCJJUlOFUsOPTwry0?></g></svg>