<?plantuml 1.2026.1?><svg xmlns="http://www.w3.org/2000/svg" xmlns:xlink="http://www.w3.org/1999/xlink" contentStyleType="text/css" data-diagram-type="SEQUENCE" height="1260.4167px" preserveAspectRatio="none" style="width:1229px;height:1260px;background:#FEFEFE;" version="1.1" viewBox="0 0 1229 1260" width="1229.1667px" zoomAndPan="magnify"><title>Export Ready Content</title><defs><linearGradient id="g1kfydeshrzq0c0" x1="50%" x2="50%" y1="0%" y2="100%"><stop offset="0%" stop-color="#59B6EC"/><stop offset="100%" stop-color="#2FA4E7"/></linearGradient><linearGradient id="g1kfydeshrzq0c1" x1="50%" x2="50%" y1="0%" y2="100%"><stop offset="0%" stop-color="#35638F"/><stop offset="100%" stop-color="#033C73"/></linearGradient></defs><g><rect fill="#FEFEFE" height="1260.4167" style="stroke:none;stroke-width:1.0417;" width="1229.1667" x="0" y="0"/><rect fill="none" height="47.168" rx="4.1667" ry="4.1667" style="stroke:#BABDBF;stroke-width:1.0417;" width="280.5868" x="478.8183" y="20.8333"/><text fill="#2FA4E7" font-family="'Verdana'" font-size="20.8333" font-weight="bold" lengthAdjust="spacing" textLength="257.6701" x="490.2766" y="51.6296">Export Ready Content</text><g><title>ExportController</title><rect fill="#EDF0F2" height="685.5469" style="stroke:#2683B9;stroke-width:1.0417;" width="10.4167" x="511.5326" y="224.1536"/></g><g><title>ExportDataService</title><rect fill="#EDF0F2" height="533.6914" style="stroke:#2683B9;stroke-width:1.0417;" width="10.4167" x="859.0729" y="263.7044"/></g><rect fill="none" height="234.0495" rx="4.1667" ry="4.1667" style="stroke:#59B6EC;stroke-width:1.0417;" width="477.2146" x="741.217" y="524.8372"/><g class="participant-lifeline" data-entity-uid="part1" data-qualified-name="Consumer" id="part1-lifeline"><g><title>Consumer</title><rect fill="#000000" fill-opacity="0.00000" height="995.4427" width="8.3333" x="138.1195" y="167.9688"/><line style="stroke:#BABDBF;stroke-width:1.0417;stroke-dasharray:5.2083,5.2083;" x1="141.6667" x2="141.6667" y1="167.9688" y2="1163.4115"/></g></g><g class="participant-lifeline" data-entity-uid="part2" data-qualified-name="EC" id="part2-lifeline"><g><title>ExportController</title><rect fill="#000000" fill-opacity="0.00000" height="995.4427" width="8.3333" x="512.5743" y="167.9688"/><line style="stroke:#BABDBF;stroke-width:1.0417;stroke-dasharray:5.2083,5.2083;" x1="516.4429" x2="516.4429" y1="167.9688" y2="1163.4115"/></g></g><g class="participant-lifeline" data-entity-uid="part3" data-qualified-name="EDS" id="part3-lifeline"><g><title>ExportDataService</title><rect fill="#000000" fill-opacity="0.00000" height="995.4427" width="8.3333" x="860.1145" y="167.9688"/><line style="stroke:#BABDBF;stroke-width:1.0417;stroke-dasharray:5.2083,5.2083;" x1="864.1337" x2="864.1337" y1="167.9688" y2="1163.4115"/></g></g><g class="participant-lifeline" data-entity-uid="part4" data-qualified-name="DB" id="part4-lifeline"><g><title>MySQL</title><rect fill="#000000" fill-opacity="0.00000" height="995.4427" width="8.3333" x="1174.055" y="167.9688"/><line style="stroke:#BABDBF;stroke-width:1.0417;stroke-dasharray:5.2083,5.2083;" x1="1177.595" x2="1177.595" y1="167.9688" y2="1163.4115"/></g></g><g class="participant participant-head" data-entity-uid="part1" data-qualified-name="Consumer" id="part1-head"><text fill="#343A40" font-family="'Verdana'" font-size="12.5" lengthAdjust="spacing" textLength="63.739" x="107.2917" y="159.8124">Consumer</text><ellipse cx="142.2862" cy="88.8346" fill="url(#g1kfydeshrzq0c0)" rx="8.3333" ry="8.3333" style="stroke:#2FA4E7;stroke-width:1.0417;"/><path d="M142.2862,97.168 L142.2862,125.293 M128.7445,105.5013 L155.8278,105.5013 M142.2862,125.293 L128.7445,140.918 M142.2862,125.293 L155.8278,140.918" fill="none" style="stroke:#2FA4E7;stroke-width:1.0417;"/></g><g class="participant participant-tail" data-entity-uid="part1" data-qualified-name="Consumer" id="part1-tail"><text fill="#343A40" font-family="'Verdana'" font-size="12.5" lengthAdjust="spacing" textLength="63.739" x="107.2917" y="1179.1809">Consumer</text><ellipse cx="142.2862" cy="1196.7122" fill="url(#g1kfydeshrzq0c0)" rx="8.3333" ry="8.3333" style="stroke:#2FA4E7;stroke-width:1.0417;"/><path d="M142.2862,1205.0456 L142.2862,1233.1706 M128.7445,1213.3789 L155.8278,1213.3789 M142.2862,1233.1706 L128.7445,1248.7956 M142.2862,1233.1706 L155.8278,1248.7956" fill="none" style="stroke:#2FA4E7;stroke-width:1.0417;"/></g><g class="participant participant-head" data-entity-uid="part2" data-qualified-name="EC" id="part2-head"><rect fill="url(#g1kfydeshrzq0c0)" height="54.1016" rx="4.1667" ry="4.1667" style="stroke:#2FA4E7;stroke-width:1.0417;" width="127.6794" x="452.9012" y="112.8255"/><text fill="#FFFFFF" font-family="'Verdana'" font-size="12.5" lengthAdjust="spacing" textLength="102.6794" x="465.4012" y="136.9283">ExportController</text><text fill="#FFFFFF" font-family="'Verdana'" font-size="12.5" lengthAdjust="spacing" textLength="87.7625" x="472.8597" y="151.4791">/api/v1/export</text></g><g class="participant participant-tail" data-entity-uid="part2" data-qualified-name="EC" id="part2-tail"><rect fill="url(#g1kfydeshrzq0c0)" height="54.1016" rx="4.1667" ry="4.1667" style="stroke:#2FA4E7;stroke-width:1.0417;" width="127.6794" x="452.9012" y="1162.3698"/><text fill="#FFFFFF" font-family="'Verdana'" font-size="12.5" lengthAdjust="spacing" textLength="102.6794" x="465.4012" y="1186.4726">ExportController</text><text fill="#FFFFFF" font-family="'Verdana'" font-size="12.5" lengthAdjust="spacing" textLength="87.7625" x="472.8597" y="1201.0234">/api/v1/export</text></g><g class="participant participant-head" data-entity-uid="part3" data-qualified-name="EDS" id="part3-head"><rect fill="url(#g1kfydeshrzq0c0)" height="39.5508" rx="4.1667" ry="4.1667" style="stroke:#2FA4E7;stroke-width:1.0417;" width="141.9617" x="793.3004" y="127.3763"/><text fill="#FFFFFF" font-family="'Verdana'" font-size="12.5" lengthAdjust="spacing" textLength="116.9617" x="805.8004" y="151.4791">ExportDataService</text></g><g class="participant participant-tail" data-entity-uid="part3" data-qualified-name="EDS" id="part3-tail"><rect fill="url(#g1kfydeshrzq0c0)" height="39.5508" rx="4.1667" ry="4.1667" style="stroke:#2FA4E7;stroke-width:1.0417;" width="141.9617" x="793.3004" y="1162.3698"/><text fill="#FFFFFF" font-family="'Verdana'" font-size="12.5" lengthAdjust="spacing" textLength="116.9617" x="805.8004" y="1186.4726">ExportDataService</text></g><g class="participant participant-head" data-entity-uid="part4" data-qualified-name="DB" id="part4-head"><text fill="#343A40" font-family="'Verdana'" font-size="12.5" lengthAdjust="spacing" textLength="42.9199" x="1153.6367" y="159.8124">MySQL</text><path d="M1159.4716,105.5013 C1159.4716,95.0846 1178.2216,95.0846 1178.2216,95.0846 C1178.2216,95.0846 1196.9716,95.0846 1196.9716,105.5013 L1196.9716,132.5846 C1196.9716,143.0013 1178.2216,143.0013 1178.2216,143.0013 C1178.2216,143.0013 1159.4716,143.0013 1159.4716,132.5846 L1159.4716,105.5013" fill="#90EE90" style="stroke:#2FA4E7;stroke-width:1.0417;"/><path d="M1159.4716,105.5013 C1159.4716,115.918 1178.2216,115.918 1178.2216,115.918 C1178.2216,115.918 1196.9716,115.918 1196.9716,105.5013" fill="none" style="stroke:#2FA4E7;stroke-width:1.0417;"/></g><g class="participant participant-tail" data-entity-uid="part4" data-qualified-name="DB" id="part4-tail"><text fill="#343A40" font-family="'Verdana'" font-size="12.5" lengthAdjust="spacing" textLength="42.9199" x="1153.6367" y="1179.1809">MySQL</text><path d="M1159.4716,1197.7539 C1159.4716,1187.3372 1178.2216,1187.3372 1178.2216,1187.3372 C1178.2216,1187.3372 1196.9716,1187.3372 1196.9716,1197.7539 L1196.9716,1224.8372 C1196.9716,1235.2539 1178.2216,1235.2539 1178.2216,1235.2539 C1178.2216,1235.2539 1159.4716,1235.2539 1159.4716,1224.8372 L1159.4716,1197.7539" fill="#90EE90" style="stroke:#2FA4E7;stroke-width:1.0417;"/><path d="M1159.4716,1197.7539 C1159.4716,1208.1706 1178.2216,1208.1706 1178.2216,1208.1706 C1178.2216,1208.1706 1196.9716,1208.1706 1196.9716,1197.7539" fill="none" style="stroke:#2FA4E7;stroke-width:1.0417;"/></g><g><title>ExportController</title><rect fill="#EDF0F2" height="685.5469" style="stroke:#2683B9;stroke-width:1.0417;" width="10.4167" x="511.5326" y="224.1536"/></g><g><title>ExportDataService</title><rect fill="#EDF0F2" height="533.6914" style="stroke:#2683B9;stroke-width:1.0417;" width="10.4167" x="859.0729" y="263.7044"/></g><g class="message" data-entity-1="part1" data-entity-2="part2" id="msg1"><polygon fill="#2FA4E7" points="499.0326,219.987,509.4493,224.1536,499.0326,228.3203,503.1993,224.1536" style="stroke:#2FA4E7;stroke-width:1.0417;"/><line style="stroke:#2FA4E7;stroke-width:2.0833;" x1="142.2862" x2="505.2826" y1="224.1536" y2="224.1536"/><text fill="#343A40" font-family="'Verdana'" font-size="12.5" lengthAdjust="spacing" textLength="156.9885" x="154.7862" y="199.3632">GET /api/v1/export/ready</text><text fill="#343A40" font-family="'Verdana'" font-size="12.5" lengthAdjust="spacing" textLength="339.0381" x="154.7862" y="213.914">?page=0&amp;size=20&amp;updatedSince=2026-04-10T00:00</text></g><g class="message" data-entity-1="part2" data-entity-2="part3" id="msg2"><polygon fill="#2FA4E7" points="846.5729,259.5378,856.9895,263.7044,846.5729,267.8711,850.7395,263.7044" style="stroke:#2FA4E7;stroke-width:1.0417;"/><line style="stroke:#2FA4E7;stroke-width:2.0833;" x1="521.9493" x2="852.8229" y1="263.7044" y2="263.7044"/><text fill="#343A40" font-family="'Verdana'" font-size="12.5" lengthAdjust="spacing" textLength="306.9153" x="534.4493" y="253.4648">getReadyForExport(pageRequest, updatedSince)</text></g><g class="message" data-entity-1="part3" data-entity-2="part4" id="msg3"><polygon fill="#2FA4E7" points="1165.7216,386.3932,1176.1383,390.5599,1165.7216,394.7266,1169.8883,390.5599" style="stroke:#2FA4E7;stroke-width:1.0417;"/><line style="stroke:#2FA4E7;stroke-width:2.0833;" x1="869.4895" x2="1171.9716" y1="390.5599" y2="390.5599"/><text fill="#343A40" font-family="'Verdana'" font-size="12.5" lengthAdjust="spacing" textLength="273.3154" x="881.9895" y="293.0155">SELECT DISTINCT c.* FROM kodik_content c</text><text fill="#343A40" font-family="'Verdana'" font-size="12.5" lengthAdjust="spacing" textLength="188.6658" x="881.9895" y="307.5663">JOIN kodik_episode_variant ev</text><text fill="#343A40" font-family="'Verdana'" font-size="12.5" lengthAdjust="spacing" textLength="148.4131" x="889.9363" y="322.1171">ON c.id = ev.content_id</text><text fill="#343A40" font-family="'Verdana'" font-size="12.5" lengthAdjust="spacing" textLength="208.49" x="881.9895" y="336.6679">WHERE ev.mp4_link IS NOT NULL</text><text fill="#343A40" font-family="'Verdana'" font-size="12.5" lengthAdjust="spacing" textLength="224.0601" x="889.9363" y="351.2187">AND c.updated_at &gt; ?updatedSince</text><text fill="#343A40" font-family="'Verdana'" font-size="12.5" lengthAdjust="spacing" textLength="188.6841" x="881.9895" y="365.7694">ORDER BY c.updated_at DESC</text><text fill="#343A40" font-family="'Verdana'" font-size="12.5" lengthAdjust="spacing" textLength="116.2231" x="881.9895" y="380.3202">LIMIT 20 OFFSET 0</text></g><g class="message" data-entity-1="part4" data-entity-2="part3" id="msg4"><polygon fill="#2FA4E7" points="880.9479,425.944,870.5312,430.1107,880.9479,434.2773,876.7812,430.1107" style="stroke:#2FA4E7;stroke-width:1.0417;"/><line style="stroke:#2FA4E7;stroke-width:2.0833;stroke-dasharray:2.0833,2.0833;" x1="874.6979" x2="1177.18" y1="430.1107" y2="430.1107"/><text fill="#343A40" font-family="'Verdana'" font-size="12.5" lengthAdjust="spacing" textLength="127.002" x="892.4062" y="419.871">List&lt;KodikContent&gt;</text></g><g class="message" data-entity-1="part3" data-entity-2="part4" id="msg5"><polygon fill="#2FA4E7" points="1165.7216,465.4948,1176.1383,469.6615,1165.7216,473.8281,1169.8883,469.6615" style="stroke:#2FA4E7;stroke-width:1.0417;"/><line style="stroke:#2FA4E7;stroke-width:2.0833;" x1="869.4895" x2="1171.9716" y1="469.6615" y2="469.6615"/><text fill="#343A40" font-family="'Verdana'" font-size="12.5" lengthAdjust="spacing" textLength="205.8899" x="881.9895" y="459.4218">SELECT COUNT(DISTINCT c.id) ...</text></g><g class="message" data-entity-1="part4" data-entity-2="part3" id="msg6"><polygon fill="#2FA4E7" points="880.9479,505.0456,870.5312,509.2122,880.9479,513.3789,876.7812,509.2122" style="stroke:#2FA4E7;stroke-width:1.0417;"/><line style="stroke:#2FA4E7;stroke-width:2.0833;stroke-dasharray:2.0833,2.0833;" x1="874.6979" x2="1177.18" y1="509.2122" y2="509.2122"/><text fill="#343A40" font-family="'Verdana'" font-size="12.5" lengthAdjust="spacing" textLength="67.8223" x="892.4062" y="498.9726">total count</text></g><path d="M745.3837,524.8372 L828.9164,524.8372 L828.9164,541.4714 L818.4998,551.888 L741.217,551.888 L741.217,529.0039 A4.1667,4.1667 0 0 1 745.3837,524.8372" fill="#E9ECEF" style="stroke:#868E96;stroke-width:1.0417;"/><rect fill="none" height="234.0495" rx="4.1667" ry="4.1667" style="stroke:#59B6EC;stroke-width:1.0417;" width="477.2146" x="741.217" y="524.8372"/><text fill="#033C73" font-family="'Verdana'" font-size="12.5" font-weight="bold" lengthAdjust="spacing" textLength="30.4077" x="762.0504" y="542.69">loop</text><text fill="#343A40" font-family="'Verdana'" font-size="12.5" font-weight="bold" lengthAdjust="spacing" textLength="127.7649" x="849.7498" y="543.7317">[for each content]</text><g class="message" data-entity-1="part3" data-entity-2="part4" id="msg7"><polygon fill="#2FA4E7" points="1165.7216,617.3828,1176.1383,621.5495,1165.7216,625.7161,1169.8883,621.5495" style="stroke:#2FA4E7;stroke-width:1.0417;"/><line style="stroke:#2FA4E7;stroke-width:2.0833;" x1="869.4895" x2="1171.9716" y1="621.5495" y2="621.5495"/><text fill="#343A40" font-family="'Verdana'" font-size="12.5" lengthAdjust="spacing" textLength="240.7959" x="881.9895" y="582.2083">SELECT * FROM kodik_episode_variant</text><text fill="#343A40" font-family="'Verdana'" font-size="12.5" lengthAdjust="spacing" textLength="140.7837" x="881.9895" y="596.759">WHERE content_id = ?</text><text fill="#343A40" font-family="'Verdana'" font-size="12.5" lengthAdjust="spacing" textLength="170.7153" x="889.9363" y="611.3098">AND mp4_link IS NOT NULL</text></g><g class="message" data-entity-1="part4" data-entity-2="part3" id="msg8"><polygon fill="#2FA4E7" points="880.9479,656.9336,870.5312,661.1003,880.9479,665.2669,876.7812,661.1003" style="stroke:#2FA4E7;stroke-width:1.0417;"/><line style="stroke:#2FA4E7;stroke-width:2.0833;stroke-dasharray:2.0833,2.0833;" x1="874.6979" x2="1177.18" y1="661.1003" y2="661.1003"/><text fill="#343A40" font-family="'Verdana'" font-size="12.5" lengthAdjust="spacing" textLength="171.6858" x="892.4062" y="650.8606">List&lt;KodikEpisodeVariant&gt;</text></g><path d="M773.9583,678.8086 L773.9583,748.6003 A4.1667,4.1667 0 0 0 778.125,752.7669 L947.9167,752.7669 A4.1667,4.1667 0 0 0 952.0833,748.6003 L952.0833,685.0586 L941.6667,674.6419 L778.125,674.6419 A4.1667,4.1667 0 0 0 773.9583,678.8086" fill="url(#g1kfydeshrzq0c1)" style="stroke:#033C73;stroke-width:1.0417;"/><path d="M941.6667,674.6419 L941.6667,682.9753 A2.0833,2.0833 0 0 0 943.75,685.0586 L952.0833,685.0586 L941.6667,674.6419" fill="url(#g1kfydeshrzq0c1)" style="stroke:#033C73;stroke-width:1.0417;"/><text fill="#FFFFFF" font-family="'Verdana'" font-size="12.5" lengthAdjust="spacing" textLength="125.0977" x="785.4167" y="696.6614">Group variants into:</text><text fill="#FFFFFF" font-family="'Verdana'" font-size="12.5" lengthAdjust="spacing" textLength="108.4595" x="785.4167" y="711.2122">SeasonExportDto</text><text fill="#FFFFFF" font-family="'Verdana'" font-size="12.5" lengthAdjust="spacing" textLength="126.6296" x="793.3634" y="725.7629">&gt; EpisodeExportDto</text><text fill="#FFFFFF" font-family="'Verdana'" font-size="12.5" lengthAdjust="spacing" textLength="122.8455" x="809.257" y="740.3137">&gt; VariantExportDto</text><g class="message" data-entity-1="part3" data-entity-2="part2" id="msg9"><polygon fill="#2FA4E7" points="533.4076,793.2292,522.9909,797.3958,533.4076,801.5625,529.2409,797.3958" style="stroke:#2FA4E7;stroke-width:1.0417;"/><line style="stroke:#2FA4E7;stroke-width:2.0833;stroke-dasharray:2.0833,2.0833;" x1="527.1576" x2="863.2395" y1="797.3958" y2="797.3958"/><text fill="#343A40" font-family="'Verdana'" font-size="12.5" lengthAdjust="spacing" textLength="225.1709" x="544.8659" y="787.1562">PageResponse&lt;ContentExportDto&gt;</text></g><g class="message" data-entity-1="part2" data-entity-2="part1" id="msg10"><polygon fill="#2FA4E7" points="153.7445,905.5339,143.3278,909.7005,153.7445,913.8672,149.5778,909.7005" style="stroke:#2FA4E7;stroke-width:1.0417;"/><line style="stroke:#2FA4E7;stroke-width:2.0833;stroke-dasharray:2.0833,2.0833;" x1="147.4945" x2="515.6993" y1="909.7005" y2="909.7005"/><text fill="#343A40" font-family="'Verdana'" font-size="12.5" lengthAdjust="spacing" textLength="45.8679" x="165.2028" y="826.7069">200 OK</text><text fill="#343A40" font-family="'Verdana'" font-size="12.5" lengthAdjust="spacing" textLength="3.9734" x="165.2028" y="841.2577">&#160;</text><text fill="#343A40" font-family="'Verdana'" font-size="12.5" lengthAdjust="spacing" textLength="113.0737" x="165.2028" y="855.8085">{"content":[{...}],</text><text fill="#343A40" font-family="'Verdana'" font-size="12.5" lengthAdjust="spacing" textLength="118.6829" x="169.1762" y="870.3593">"page":0,"size":20,</text><text fill="#343A40" font-family="'Verdana'" font-size="12.5" lengthAdjust="spacing" textLength="114.4836" x="169.1762" y="884.9101">"totalElements":5,</text><text fill="#343A40" font-family="'Verdana'" font-size="12.5" lengthAdjust="spacing" textLength="97.5342" x="169.1762" y="899.4609">"totalPages":1}</text></g><path d="M15.625,927.4089 L15.625,1143.0339 A4.1667,4.1667 0 0 0 19.7917,1147.2005 L265.625,1147.2005 A4.1667,4.1667 0 0 0 269.7917,1143.0339 L269.7917,933.6589 L259.375,923.2422 L19.7917,923.2422 A4.1667,4.1667 0 0 0 15.625,927.4089" fill="#E8F5E9" style="stroke:#033C73;stroke-width:1.0417;"/><path d="M259.375,923.2422 L259.375,931.5755 A2.0833,2.0833 0 0 0 261.4583,933.6589 L269.7917,933.6589 L259.375,923.2422" fill="#E8F5E9" style="stroke:#033C73;stroke-width:1.0417;"/><text fill="#FFFFFF" font-family="'Verdana'" font-size="12.5" lengthAdjust="spacing" textLength="181.5857" x="27.0833" y="945.2616">Response ContentExportDto:</text><text fill="#FFFFFF" font-family="'Verdana'" font-size="12.5" lengthAdjust="spacing" textLength="178.241" x="35.0301" y="959.8124">id, type, title, titleOrig, year,</text><text fill="#FFFFFF" font-family="'Verdana'" font-size="12.5" lengthAdjust="spacing" textLength="202.3926" x="35.0301" y="974.3632">kinopoiskId, imdbId, shikimoriId,</text><text fill="#FFFFFF" font-family="'Verdana'" font-size="12.5" lengthAdjust="spacing" textLength="133.6365" x="35.0301" y="988.914">screenshots: [url, ...],</text><text fill="#FFFFFF" font-family="'Verdana'" font-size="12.5" lengthAdjust="spacing" textLength="63.5193" x="35.0301" y="1003.4648">seasons: [</text><text fill="#FFFFFF" font-family="'Verdana'" font-size="12.5" lengthAdjust="spacing" textLength="198.6267" x="42.9769" y="1018.0155">{ seasonNumber: 1, episodes: [</text><text fill="#FFFFFF" font-family="'Verdana'" font-size="12.5" lengthAdjust="spacing" textLength="198.8342" x="50.9237" y="1032.5663">{ episodeNumber: 1, variants: [</text><text fill="#FFFFFF" font-family="'Verdana'" font-size="12.5" lengthAdjust="spacing" textLength="177.2644" x="58.8704" y="1047.1171">{ translationTitle: "AniDUB",</text><text fill="#FFFFFF" font-family="'Verdana'" font-size="12.5" lengthAdjust="spacing" textLength="154.6082" x="66.8172" y="1061.6679">translationType: "voice",</text><text fill="#FFFFFF" font-family="'Verdana'" font-size="12.5" lengthAdjust="spacing" textLength="172.2107" x="66.8172" y="1076.2187">quality: "WEB-DLRip 720p",</text><text fill="#FFFFFF" font-family="'Verdana'" font-size="12.5" lengthAdjust="spacing" textLength="141.9983" x="66.8172" y="1090.7694">mp4Link: "https://..." }</text><text fill="#FFFFFF" font-family="'Verdana'" font-size="12.5" lengthAdjust="spacing" textLength="12.8296" x="50.9237" y="1105.3202">]}</text><text fill="#FFFFFF" font-family="'Verdana'" font-size="12.5" lengthAdjust="spacing" textLength="12.8296" x="42.9769" y="1119.871">]}</text><text fill="#FFFFFF" font-family="'Verdana'" font-size="12.5" lengthAdjust="spacing" textLength="4.8767" x="35.0301" y="1134.4218">]</text><?plantuml-src TLH_R-964FtVdsBgIAUxoe23xlh3kX0bsAJq76YnqrDrZj36di8Ai-lRNRYZKRvxPsr384gDXBspRz_Cl9dP7ymIrmWvgas9J3XwnKN555l30yjN2oKteXZAKYeu6qNsTuJG-7M38iShfUItTCdpbK2jeUyuXfiI8VfUIMLWXgpOmL0AWy8u3iiDiT5IRzQe7A8oFESL4mRSveI5AbcMg3BHOnNlRSzxME-um3H4mzSEXSom1DMMvzYWmiGfoFR0D89xkql-Z6jxU0rdCLyipOr258wp3mGw0sA606wY54wzzfJD81EN5LlWXVz6yt_nek-_sLJa08k4amQqxl_KyTztpltKzmFVjtdoBUtRU1rYjlnXGWuMQ6f9Hb8reR-rl3ChfZOU7BE-EsAXV1nBG3oKGm1954V35C9naeudz95tVuJHR7eBArdmrJnlz8Oy4xzFnvFMYXNNii3vbYbknSDj9W2c4phD2xYWTRSzEET59Zx_5iqYQrnNx-Sb5oiO9p2PfZ2vYsDxyceIqj4sv3apC83BumGoCPs5qGok_pw5XL4op4GylXsdqFTXEXeb9BllK6QTWr0nr-RZ9njtspo3LnKOJkycwTiZ7NZn3hhTxYcPaOQLa5C_Km-MKbRm3xKXidm9RSOEqFCA_uciBmJSI_Gi6ebukLVcDTLgB_-JPjIG_zLmKxOMAoHLNswfGnlu3Sra1Qr_3LmO6MGYGQQbQ4V1I1i1yJTy9rRx3A1rSTXnK1IjkFiv-ADkIbtHVE37jW07_C0fy4Lh3kkZXt4AgAvKs4-PoCIZs-hZ1byUgJ9Fznw5ujgsTmFVS-r0kK7VhwrreQAIRYLApmq-F1jjH6GvVpfnJjFrBD71_Ldqo-X3zAkppm1UPX2GkBpmmEmgf7zxORMlgU8B3tR8b4SOkkra9RbUZGdCryM3VUibN_6rL9mMXD6vlKlqKXeTm9UDAZtRV_VrLbqNQwwB-TWQ9flr0we0pZreE-e0iQ3MTeJQr_iPPN56CQ5BPhWKgGqz0FTAyF3kslKEA3X1KRO4safxJHvZlcvOoSsEzZv7rvqmdl4AVkxxrGc8-ZccTYRGqfXA1xqUfUd2KmkvRpxgrxtjgBft_mC0?></g></svg>