<?plantuml 1.2026.2?><svg xmlns="http://www.w3.org/2000/svg" xmlns:xlink="http://www.w3.org/1999/xlink" contentStyleType="text/css" data-diagram-type="SEQUENCE" height="1669.7917px" preserveAspectRatio="none" style="width:1080px;height:1669px;background:#FEFEFE;" version="1.1" viewBox="0 0 1080 1669" width="1080.2083px" zoomAndPan="magnify"><title>Background Tasks &#8212; TTL Refresh &amp; Retry</title><defs><linearGradient id="g16kmkmzz4tko50" x1="50%" x2="50%" y1="0%" y2="100%"><stop offset="0%" stop-color="#59B6EC"/><stop offset="100%" stop-color="#2FA4E7"/></linearGradient><linearGradient id="g16kmkmzz4tko51" x1="50%" x2="50%" y1="0%" y2="100%"><stop offset="0%" stop-color="#FFFFFF"/><stop offset="100%" stop-color="#F8F9FA"/></linearGradient><linearGradient id="g16kmkmzz4tko52" x1="50%" x2="50%" y1="0%" y2="100%"><stop offset="0%" stop-color="#35638F"/><stop offset="100%" stop-color="#033C73"/></linearGradient></defs><g><rect fill="#FEFEFE" height="1669.7917" style="stroke:none;stroke-width:1.0417;" width="1080.2083" x="0" y="0"/><rect fill="none" height="47.168" rx="4.1667" ry="4.1667" style="stroke:#BABDBF;stroke-width:1.0417;" width="509.1329" x="284.0658" y="20.8333"/><text fill="#2FA4E7" font-family="'Verdana'" font-size="20.8333" font-weight="bold" lengthAdjust="spacing" textLength="486.2162" x="295.5241" y="51.6296">Background Tasks &#8212; TTL Refresh &amp; Retry</text><g><title>ParserService</title><rect fill="#EDF0F2" height="549.4141" style="stroke:#2683B9;stroke-width:1.0417;" width="10.4167" x="348.4578" y="248.112"/></g><g><title>ParserService</title><rect fill="#EDF0F2" height="665.918" style="stroke:#2683B9;stroke-width:1.0417;" width="10.4167" x="348.4578" y="891.2109"/></g><g><title>VideoDecoderService</title><rect fill="#EDF0F2" height="118.6523" style="stroke:#2683B9;stroke-width:1.0417;" width="10.4167" x="655.2958" y="570.638"/></g><g><title>VideoDecoderService</title><rect fill="#EDF0F2" height="293.457" style="stroke:#2683B9;stroke-width:1.0417;" width="10.4167" x="655.2958" y="1111.7513"/></g><rect fill="none" height="372.526" rx="4.1667" ry="4.1667" style="stroke:#59B6EC;stroke-width:1.0417;" width="833.5144" x="223.9583" y="386.4909"/><rect fill="none" height="248.6979" rx="4.1667" ry="4.1667" style="stroke:#59B6EC;stroke-width:1.0417;" width="800.9115" x="246.1446" y="503.0273"/><rect fill="none" height="489.0299" rx="4.1667" ry="4.1667" style="stroke:#59B6EC;stroke-width:1.0417;" width="821.7448" x="235.7279" y="1029.5898"/><rect fill="none" height="239.3229" rx="4.1667" ry="4.1667" style="stroke:#59B6EC;stroke-width:1.0417;" width="469.0125" x="518.457" y="1127.3763"/><rect fill="none" height="148.7956" rx="4.1667" ry="4.1667" style="stroke:#59B6EC;stroke-width:1.0417;" width="448.1791" x="528.8737" y="1210.612"/><rect fill="none" height="90.4948" rx="4.1667" ry="4.1667" style="stroke:#59B6EC;stroke-width:1.0417;" width="800.9115" x="246.1446" y="1420.8333"/><g class="participant-lifeline" data-entity-uid="part1" data-qualified-name="SCH" id="part1-lifeline"><g><title>Spring .Scheduled</title><rect fill="#000000" fill-opacity="0.00000" height="1423.5352" width="8.3333" x="126.7181" y="152.3438"/><line style="stroke:#BABDBF;stroke-width:1.0417;stroke-dasharray:5.2083,5.2083;" x1="130.2083" x2="130.2083" y1="152.3438" y2="1575.8789"/></g></g><g class="participant-lifeline" data-entity-uid="part2" data-qualified-name="PS" id="part2-lifeline"><g><title>ParserService</title><rect fill="#000000" fill-opacity="0.00000" height="1423.5352" width="8.3333" x="349.4995" y="152.3438"/><line style="stroke:#BABDBF;stroke-width:1.0417;stroke-dasharray:5.2083,5.2083;" x1="353.4363" x2="353.4363" y1="152.3438" y2="1575.8789"/></g></g><g class="participant-lifeline" data-entity-uid="part3" data-qualified-name="KVDS" id="part3-lifeline"><g><title>VideoDecoderService</title><rect fill="#000000" fill-opacity="0.00000" height="1423.5352" width="8.3333" x="656.3375" y="152.3438"/><line style="stroke:#BABDBF;stroke-width:1.0417;stroke-dasharray:5.2083,5.2083;" x1="660.1237" x2="660.1237" y1="152.3438" y2="1575.8789"/></g></g><g class="participant-lifeline" data-entity-uid="part4" data-qualified-name="CDN" id="part4-lifeline"><g><title>Kodik CDN</title><rect fill="#000000" fill-opacity="0.00000" height="1423.5352" width="8.3333" x="875.2187" y="152.3438"/><line style="stroke:#BABDBF;stroke-width:1.0417;stroke-dasharray:5.2083,5.2083;" x1="878.5929" x2="878.5929" y1="152.3438" y2="1575.8789"/></g></g><g class="participant-lifeline" data-entity-uid="part5" data-qualified-name="DB" id="part5-lifeline"><g><title>MySQL</title><rect fill="#000000" fill-opacity="0.00000" height="1423.5352" width="8.3333" x="1002.6794" y="152.3438"/><line style="stroke:#BABDBF;stroke-width:1.0417;stroke-dasharray:5.2083,5.2083;" x1="1006.2195" x2="1006.2195" y1="152.3438" y2="1575.8789"/></g></g><g class="participant participant-head" data-entity-uid="part1" data-qualified-name="SCH" id="part1-head"><rect fill="#ADD8E6" height="39.5508" rx="4.1667" ry="4.1667" style="stroke:#2FA4E7;stroke-width:1.0417;" width="147.1863" x="57.2917" y="111.7513"/><text fill="#FFFFFF" font-family="'Verdana'" font-size="12.5" lengthAdjust="spacing" textLength="122.1863" x="69.7917" y="135.8541">Spring @Scheduled</text></g><g class="participant participant-tail" data-entity-uid="part1" data-qualified-name="SCH" id="part1-tail"><rect fill="#ADD8E6" height="39.5508" rx="4.1667" ry="4.1667" style="stroke:#2FA4E7;stroke-width:1.0417;" width="147.1863" x="57.2917" y="1574.8372"/><text fill="#FFFFFF" font-family="'Verdana'" font-size="12.5" lengthAdjust="spacing" textLength="122.1863" x="69.7917" y="1598.94">Spring @Scheduled</text></g><g class="participant participant-head" data-entity-uid="part2" data-qualified-name="PS" id="part2-head"><rect fill="url(#g16kmkmzz4tko50)" height="39.5508" rx="4.1667" ry="4.1667" style="stroke:#2FA4E7;stroke-width:1.0417;" width="110.8765" x="298.2279" y="111.7513"/><text fill="#FFFFFF" font-family="'Verdana'" font-size="12.5" lengthAdjust="spacing" textLength="85.8765" x="310.7279" y="135.8541">ParserService</text></g><g class="participant participant-tail" data-entity-uid="part2" data-qualified-name="PS" id="part2-tail"><rect fill="url(#g16kmkmzz4tko50)" height="39.5508" rx="4.1667" ry="4.1667" style="stroke:#2FA4E7;stroke-width:1.0417;" width="110.8765" x="298.2279" y="1574.8372"/><text fill="#FFFFFF" font-family="'Verdana'" font-size="12.5" lengthAdjust="spacing" textLength="85.8765" x="310.7279" y="1598.94">ParserService</text></g><g class="participant participant-head" data-entity-uid="part3" data-qualified-name="KVDS" id="part3-head"><rect fill="#FFA07A" height="39.5508" rx="4.1667" ry="4.1667" style="stroke:#2FA4E7;stroke-width:1.0417;" width="159.0942" x="580.957" y="111.7513"/><text fill="#FFFFFF" font-family="'Verdana'" font-size="12.5" lengthAdjust="spacing" textLength="134.0942" x="593.457" y="135.8541">VideoDecoderService</text></g><g class="participant participant-tail" data-entity-uid="part3" data-qualified-name="KVDS" id="part3-tail"><rect fill="#FFA07A" height="39.5508" rx="4.1667" ry="4.1667" style="stroke:#2FA4E7;stroke-width:1.0417;" width="159.0942" x="580.957" y="1574.8372"/><text fill="#FFFFFF" font-family="'Verdana'" font-size="12.5" lengthAdjust="spacing" textLength="134.0942" x="593.457" y="1598.94">VideoDecoderService</text></g><g class="participant participant-head" data-entity-uid="part4" data-qualified-name="CDN" id="part4-head"><rect fill="#F08080" height="39.5508" rx="4.1667" ry="4.1667" style="stroke:#2FA4E7;stroke-width:1.0417;" width="91.1682" x="833.8013" y="111.7513"/><text fill="#FFFFFF" font-family="'Verdana'" font-size="12.5" lengthAdjust="spacing" textLength="66.1682" x="846.3013" y="135.8541">Kodik CDN</text></g><g class="participant participant-tail" data-entity-uid="part4" data-qualified-name="CDN" id="part4-tail"><rect fill="#F08080" height="39.5508" rx="4.1667" ry="4.1667" style="stroke:#2FA4E7;stroke-width:1.0417;" width="91.1682" x="833.8013" y="1574.8372"/><text fill="#FFFFFF" font-family="'Verdana'" font-size="12.5" lengthAdjust="spacing" textLength="66.1682" x="846.3013" y="1598.94">Kodik CDN</text></g><g class="participant participant-head" data-entity-uid="part5" data-qualified-name="DB" id="part5-head"><text fill="#343A40" font-family="'Verdana'" font-size="12.5" lengthAdjust="spacing" textLength="42.9199" x="982.2611" y="144.1874">MySQL</text><path d="M988.0961,89.8763 C988.0961,79.4596 1006.8461,79.4596 1006.8461,79.4596 C1006.8461,79.4596 1025.5961,79.4596 1025.5961,89.8763 L1025.5961,116.9596 C1025.5961,127.3763 1006.8461,127.3763 1006.8461,127.3763 C1006.8461,127.3763 988.0961,127.3763 988.0961,116.9596 L988.0961,89.8763" fill="#90EE90" style="stroke:#2FA4E7;stroke-width:1.0417;"/><path d="M988.0961,89.8763 C988.0961,100.293 1006.8461,100.293 1006.8461,100.293 C1006.8461,100.293 1025.5961,100.293 1025.5961,89.8763" fill="none" style="stroke:#2FA4E7;stroke-width:1.0417;"/></g><g class="participant participant-tail" data-entity-uid="part5" data-qualified-name="DB" id="part5-tail"><text fill="#343A40" font-family="'Verdana'" font-size="12.5" lengthAdjust="spacing" textLength="42.9199" x="982.2611" y="1591.6484">MySQL</text><path d="M988.0961,1610.2214 C988.0961,1599.8047 1006.8461,1599.8047 1006.8461,1599.8047 C1006.8461,1599.8047 1025.5961,1599.8047 1025.5961,1610.2214 L1025.5961,1637.3047 C1025.5961,1647.7214 1006.8461,1647.7214 1006.8461,1647.7214 C1006.8461,1647.7214 988.0961,1647.7214 988.0961,1637.3047 L988.0961,1610.2214" fill="#90EE90" style="stroke:#2FA4E7;stroke-width:1.0417;"/><path d="M988.0961,1610.2214 C988.0961,1620.638 1006.8461,1620.638 1006.8461,1620.638 C1006.8461,1620.638 1025.5961,1620.638 1025.5961,1610.2214" fill="none" style="stroke:#2FA4E7;stroke-width:1.0417;"/></g><g><title>ParserService</title><rect fill="#EDF0F2" height="549.4141" style="stroke:#2683B9;stroke-width:1.0417;" width="10.4167" x="348.4578" y="248.112"/></g><g><title>ParserService</title><rect fill="#EDF0F2" height="665.918" style="stroke:#2683B9;stroke-width:1.0417;" width="10.4167" x="348.4578" y="891.2109"/></g><g><title>VideoDecoderService</title><rect fill="#EDF0F2" height="118.6523" style="stroke:#2683B9;stroke-width:1.0417;" width="10.4167" x="655.2958" y="570.638"/></g><g><title>VideoDecoderService</title><rect fill="#EDF0F2" height="293.457" style="stroke:#2683B9;stroke-width:1.0417;" width="10.4167" x="655.2958" y="1111.7513"/></g><rect fill="url(#g16kmkmzz4tko51)" height="3.125" rx="4.1667" ry="4.1667" style="stroke:url(#g16kmkmzz4tko51);stroke-width:1.0417;" width="1057.4727" x="10.4167" y="188.7858"/><line style="stroke:#868E96;stroke-width:1.0417;" x1="10.4167" x2="1067.8894" y1="188.7858" y2="188.7858"/><line style="stroke:#868E96;stroke-width:1.0417;" x1="10.4167" x2="1067.8894" y1="191.9108" y2="191.9108"/><rect fill="url(#g16kmkmzz4tko51)" height="33.3008" rx="4.1667" ry="4.1667" style="stroke:#868E96;stroke-width:2.0833;" width="448.3643" x="314.9709" y="173.1771"/><text fill="#343A40" font-family="'Verdana'" font-size="12.5" font-weight="bold" lengthAdjust="spacing" textLength="419.0125" x="326.4292" y="194.1549">refreshExpiredLinks (every refresh-interval-ms, default 1h)</text><g class="message" data-entity-1="part1" data-entity-2="part2" id="msg1"><polygon fill="#2FA4E7" points="335.9578,243.9453,346.3745,248.112,335.9578,252.2786,340.1245,248.112" style="stroke:#2FA4E7;stroke-width:1.0417;"/><line style="stroke:#2FA4E7;stroke-width:2.0833;" x1="130.8848" x2="342.2078" y1="248.112" y2="248.112"/><text fill="#343A40" font-family="'Verdana'" font-size="12.5" lengthAdjust="spacing" textLength="133.8257" x="143.3848" y="237.8723">refreshExpiredLinks()</text></g><g class="message" data-entity-1="part2" data-entity-2="part5" id="msg2"><polygon fill="#2FA4E7" points="994.3461,327.1484,1004.7628,331.3151,994.3461,335.4818,998.5128,331.3151" style="stroke:#2FA4E7;stroke-width:1.0417;"/><line style="stroke:#2FA4E7;stroke-width:2.0833;" x1="358.8745" x2="1000.5961" y1="331.3151" y2="331.3151"/><text fill="#343A40" font-family="'Verdana'" font-size="12.5" lengthAdjust="spacing" textLength="240.7959" x="371.3745" y="277.4231">SELECT * FROM kodik_episode_variant</text><text fill="#343A40" font-family="'Verdana'" font-size="12.5" lengthAdjust="spacing" textLength="189.4287" x="371.3745" y="291.9739">WHERE mp4_link IS NOT NULL</text><text fill="#343A40" font-family="'Verdana'" font-size="12.5" lengthAdjust="spacing" textLength="351.8433" x="379.3213" y="306.5247">AND mp4_link_decoded_at &lt; NOW() - INTERVAL ? HOUR</text><text fill="#343A40" font-family="'Verdana'" font-size="12.5" lengthAdjust="spacing" textLength="52.6367" x="371.3745" y="321.0754">LIMIT 50</text></g><g class="message" data-entity-1="part5" data-entity-2="part2" id="msg3"><polygon fill="#2FA4E7" points="370.3328,366.6992,359.9162,370.8659,370.3328,375.0326,366.1662,370.8659" style="stroke:#2FA4E7;stroke-width:1.0417;"/><line style="stroke:#2FA4E7;stroke-width:2.0833;stroke-dasharray:2.0833,2.0833;" x1="364.0828" x2="1005.8044" y1="370.8659" y2="370.8659"/><text fill="#343A40" font-family="'Verdana'" font-size="12.5" lengthAdjust="spacing" textLength="144.696" x="381.7912" y="360.6262">List&lt;expired variants&gt;</text></g><path d="M228.125,386.4909 L299.9451,386.4909 L299.9451,403.125 L289.5284,413.5417 L223.9583,413.5417 L223.9583,390.6576 A4.1667,4.1667 0 0 1 228.125,386.4909" fill="#E9ECEF" style="stroke:#868E96;stroke-width:1.0417;"/><rect fill="none" height="372.526" rx="4.1667" ry="4.1667" style="stroke:#59B6EC;stroke-width:1.0417;" width="833.5144" x="223.9583" y="386.4909"/><text fill="#033C73" font-family="'Verdana'" font-size="12.5" font-weight="bold" lengthAdjust="spacing" textLength="18.6951" x="244.7917" y="404.3437">alt</text><text fill="#343A40" font-family="'Verdana'" font-size="12.5" font-weight="bold" lengthAdjust="spacing" textLength="124.2004" x="320.7784" y="405.3853">[no expired links]</text><path d="M234.375,432.2591 L234.375,458.3008 A4.1667,4.1667 0 0 0 238.5417,462.4674 L466.6667,462.4674 A4.1667,4.1667 0 0 0 470.8333,458.3008 L470.8333,438.5091 L460.4167,428.0924 L238.5417,428.0924 A4.1667,4.1667 0 0 0 234.375,432.2591" fill="url(#g16kmkmzz4tko52)" style="stroke:#033C73;stroke-width:1.0417;"/><path d="M460.4167,428.0924 L460.4167,436.4258 A2.0833,2.0833 0 0 0 462.5,438.5091 L470.8333,438.5091 L460.4167,428.0924" fill="url(#g16kmkmzz4tko52)" style="stroke:#033C73;stroke-width:1.0417;"/><text fill="#FFFFFF" font-family="'Verdana'" font-size="12.5" lengthAdjust="spacing" textLength="204.5532" x="245.8333" y="450.1119">log: "No expired links to refresh"</text><line style="stroke:#59B6EC;stroke-width:1.0417;stroke-dasharray:2.0833,2.0833;" x1="223.9583" x2="1057.4727" y1="469.7266" y2="469.7266"/><text fill="#343A40" font-family="'Verdana'" font-size="12.5" font-weight="bold" lengthAdjust="spacing" textLength="131.488" x="234.375" y="486.5377">[has expired links]</text><path d="M250.3113,503.0273 L333.844,503.0273 L333.844,519.6615 L323.4273,530.0781 L246.1446,530.0781 L246.1446,507.194 A4.1667,4.1667 0 0 1 250.3113,503.0273" fill="#E9ECEF" style="stroke:#868E96;stroke-width:1.0417;"/><rect fill="none" height="248.6979" rx="4.1667" ry="4.1667" style="stroke:#59B6EC;stroke-width:1.0417;" width="800.9115" x="246.1446" y="503.0273"/><text fill="#033C73" font-family="'Verdana'" font-size="12.5" font-weight="bold" lengthAdjust="spacing" textLength="30.4077" x="266.9779" y="520.8801">loop</text><text fill="#343A40" font-family="'Verdana'" font-size="12.5" font-weight="bold" lengthAdjust="spacing" textLength="181.5979" x="354.6773" y="521.9218">[for each expired variant]</text><g class="message" data-entity-1="part2" data-entity-2="part3" id="msg4"><polygon fill="#2FA4E7" points="642.7958,566.4714,653.2125,570.638,642.7958,574.8047,646.9625,570.638" style="stroke:#2FA4E7;stroke-width:1.0417;"/><line style="stroke:#2FA4E7;stroke-width:2.0833;" x1="358.8745" x2="649.0458" y1="570.638" y2="570.638"/><text fill="#343A40" font-family="'Verdana'" font-size="12.5" lengthAdjust="spacing" textLength="114.6545" x="371.3745" y="560.3984">decode(kodikLink)</text></g><g class="message" data-entity-1="part3" data-entity-2="part4" id="msg5"><polygon fill="#2FA4E7" points="866.8854,606.0221,877.302,610.1888,866.8854,614.3555,871.052,610.1888" style="stroke:#2FA4E7;stroke-width:1.0417;"/><line style="stroke:#2FA4E7;stroke-width:2.0833;" x1="665.7125" x2="873.1354" y1="610.1888" y2="610.1888"/><text fill="#343A40" font-family="'Verdana'" font-size="12.5" lengthAdjust="spacing" textLength="89.2456" x="678.2125" y="599.9491">8-step decode</text></g><g class="message" data-entity-1="part4" data-entity-2="part3" id="msg6"><polygon fill="#2FA4E7" points="677.1708,645.5729,666.7542,649.7396,677.1708,653.9063,673.0042,649.7396" style="stroke:#2FA4E7;stroke-width:1.0417;"/><line style="stroke:#2FA4E7;stroke-width:2.0833;stroke-dasharray:2.0833,2.0833;" x1="670.9208" x2="878.3437" y1="649.7396" y2="649.7396"/><text fill="#343A40" font-family="'Verdana'" font-size="12.5" lengthAdjust="spacing" textLength="98.9868" x="688.6292" y="639.4999">fresh mp4 URLs</text></g><g class="message" data-entity-1="part3" data-entity-2="part2" id="msg7"><polygon fill="#2FA4E7" points="370.3328,685.1237,359.9162,689.2904,370.3328,693.457,366.1662,689.2904" style="stroke:#2FA4E7;stroke-width:1.0417;"/><line style="stroke:#2FA4E7;stroke-width:2.0833;stroke-dasharray:2.0833,2.0833;" x1="364.0828" x2="659.4625" y1="689.2904" y2="689.2904"/><text fill="#343A40" font-family="'Verdana'" font-size="12.5" lengthAdjust="spacing" textLength="114.5691" x="381.7912" y="679.0507">Map&lt;quality, url&gt;</text></g><g class="message" data-entity-1="part2" data-entity-2="part5" id="msg8"><polygon fill="#2FA4E7" points="994.3461,739.2253,1004.7628,743.3919,994.3461,747.5586,998.5128,743.3919" style="stroke:#2FA4E7;stroke-width:1.0417;"/><line style="stroke:#2FA4E7;stroke-width:2.0833;" x1="358.8745" x2="1000.5961" y1="743.3919" y2="743.3919"/><text fill="#343A40" font-family="'Verdana'" font-size="12.5" lengthAdjust="spacing" textLength="139.8193" x="371.3745" y="718.6015">UPDATE mp4_link = ?,</text><text fill="#343A40" font-family="'Verdana'" font-size="12.5" lengthAdjust="spacing" textLength="194.9097" x="371.3745" y="733.1523">mp4_link_decoded_at = NOW()</text></g><g class="message" data-entity-1="part2" data-entity-2="part1" id="msg9"><polygon fill="#2FA4E7" points="142.3431,793.3594,131.9265,797.526,142.3431,801.6927,138.1765,797.526" style="stroke:#2FA4E7;stroke-width:1.0417;"/><line style="stroke:#2FA4E7;stroke-width:2.0833;stroke-dasharray:2.0833,2.0833;" x1="136.0931" x2="352.6245" y1="797.526" y2="797.526"/><text fill="#343A40" font-family="'Verdana'" font-size="12.5" lengthAdjust="spacing" textLength="31.1951" x="153.8015" y="787.2864">done</text></g><rect fill="url(#g16kmkmzz4tko51)" height="3.125" rx="4.1667" ry="4.1667" style="stroke:url(#g16kmkmzz4tko51);stroke-width:1.0417;" width="1057.4727" x="10.4167" y="831.8848"/><line style="stroke:#868E96;stroke-width:1.0417;" x1="10.4167" x2="1067.8894" y1="831.8848" y2="831.8848"/><line style="stroke:#868E96;stroke-width:1.0417;" x1="10.4167" x2="1067.8894" y1="835.0098" y2="835.0098"/><rect fill="url(#g16kmkmzz4tko51)" height="33.3008" rx="4.1667" ry="4.1667" style="stroke:#868E96;stroke-width:2.0833;" width="387.6343" x="345.3359" y="816.276"/><text fill="#343A40" font-family="'Verdana'" font-size="12.5" font-weight="bold" lengthAdjust="spacing" textLength="358.2825" x="356.7942" y="837.2538">retryFailedDecodes (same interval + 30min offset)</text><g class="message" data-entity-1="part1" data-entity-2="part2" id="msg10"><polygon fill="#2FA4E7" points="335.9578,887.0443,346.3745,891.2109,335.9578,895.3776,340.1245,891.2109" style="stroke:#2FA4E7;stroke-width:1.0417;"/><line style="stroke:#2FA4E7;stroke-width:2.0833;" x1="130.8848" x2="342.2078" y1="891.2109" y2="891.2109"/><text fill="#343A40" font-family="'Verdana'" font-size="12.5" lengthAdjust="spacing" textLength="131.4148" x="143.3848" y="880.9713">retryFailedDecodes()</text></g><g class="message" data-entity-1="part2" data-entity-2="part5" id="msg11"><polygon fill="#2FA4E7" points="994.3461,970.2474,1004.7628,974.4141,994.3461,978.5807,998.5128,974.4141" style="stroke:#2FA4E7;stroke-width:1.0417;"/><line style="stroke:#2FA4E7;stroke-width:2.0833;" x1="358.8745" x2="1000.5961" y1="974.4141" y2="974.4141"/><text fill="#343A40" font-family="'Verdana'" font-size="12.5" lengthAdjust="spacing" textLength="240.7959" x="371.3745" y="920.5221">SELECT * FROM kodik_episode_variant</text><text fill="#343A40" font-family="'Verdana'" font-size="12.5" lengthAdjust="spacing" textLength="158.6304" x="371.3745" y="935.0728">WHERE mp4_link IS NULL</text><text fill="#343A40" font-family="'Verdana'" font-size="12.5" lengthAdjust="spacing" textLength="176.1841" x="379.3213" y="949.6236">AND kodik_link IS NOT NULL</text><text fill="#343A40" font-family="'Verdana'" font-size="12.5" lengthAdjust="spacing" textLength="52.6367" x="371.3745" y="964.1744">LIMIT 50</text></g><g class="message" data-entity-1="part5" data-entity-2="part2" id="msg12"><polygon fill="#2FA4E7" points="370.3328,1009.7982,359.9162,1013.9648,370.3328,1018.1315,366.1662,1013.9648" style="stroke:#2FA4E7;stroke-width:1.0417;"/><line style="stroke:#2FA4E7;stroke-width:2.0833;stroke-dasharray:2.0833,2.0833;" x1="364.0828" x2="1005.8044" y1="1013.9648" y2="1013.9648"/><text fill="#343A40" font-family="'Verdana'" font-size="12.5" lengthAdjust="spacing" textLength="132.0679" x="381.7912" y="1003.7252">List&lt;failed variants&gt;</text></g><path d="M239.8946,1029.5898 L323.4273,1029.5898 L323.4273,1046.224 L313.0107,1056.6406 L235.7279,1056.6406 L235.7279,1033.7565 A4.1667,4.1667 0 0 1 239.8946,1029.5898" fill="#E9ECEF" style="stroke:#868E96;stroke-width:1.0417;"/><rect fill="none" height="489.0299" rx="4.1667" ry="4.1667" style="stroke:#59B6EC;stroke-width:1.0417;" width="821.7448" x="235.7279" y="1029.5898"/><text fill="#033C73" font-family="'Verdana'" font-size="12.5" font-weight="bold" lengthAdjust="spacing" textLength="30.4077" x="256.5613" y="1047.4426">loop</text><text fill="#343A40" font-family="'Verdana'" font-size="12.5" font-weight="bold" lengthAdjust="spacing" textLength="168.103" x="344.2607" y="1048.4843">[for each failed variant]</text><g class="message" data-entity-1="part2" data-entity-2="part3" id="msg13"><polygon fill="#2FA4E7" points="642.7958,1107.5846,653.2125,1111.7513,642.7958,1115.918,646.9625,1111.7513" style="stroke:#2FA4E7;stroke-width:1.0417;"/><line style="stroke:#2FA4E7;stroke-width:2.0833;" x1="358.8745" x2="649.0458" y1="1111.7513" y2="1111.7513"/><text fill="#343A40" font-family="'Verdana'" font-size="12.5" lengthAdjust="spacing" textLength="114.6545" x="371.3745" y="1086.9609">decode(kodikLink)</text><text fill="#343A40" font-family="'Verdana'" font-size="12.5" lengthAdjust="spacing" textLength="217.926" x="371.3745" y="1101.5116">with Retry.backoff(maxRetries, 2s)</text></g><path d="M522.6237,1127.3763 L606.1564,1127.3763 L606.1564,1144.0104 L595.7397,1154.4271 L518.457,1154.4271 L518.457,1131.543 A4.1667,4.1667 0 0 1 522.6237,1127.3763" fill="#E9ECEF" style="stroke:#868E96;stroke-width:1.0417;"/><rect fill="none" height="239.3229" rx="4.1667" ry="4.1667" style="stroke:#59B6EC;stroke-width:1.0417;" width="469.0125" x="518.457" y="1127.3763"/><text fill="#033C73" font-family="'Verdana'" font-size="12.5" font-weight="bold" lengthAdjust="spacing" textLength="30.4077" x="539.2904" y="1145.2291">loop</text><text fill="#343A40" font-family="'Verdana'" font-size="12.5" font-weight="bold" lengthAdjust="spacing" textLength="176.8799" x="626.9897" y="1146.2708">[retry on failure (max 3)]</text><g class="message" data-entity-1="part3" data-entity-2="part4" id="msg14"><polygon fill="#2FA4E7" points="866.8854,1190.8203,877.302,1194.987,866.8854,1199.1536,871.052,1194.987" style="stroke:#2FA4E7;stroke-width:1.0417;"/><line style="stroke:#2FA4E7;stroke-width:2.0833;" x1="665.7125" x2="873.1354" y1="1194.987" y2="1194.987"/><text fill="#343A40" font-family="'Verdana'" font-size="12.5" lengthAdjust="spacing" textLength="99.9084" x="678.2125" y="1184.7473">attempt decode</text></g><path d="M533.0404,1210.612 L604.8604,1210.612 L604.8604,1227.2461 L594.4438,1237.6628 L528.8737,1237.6628 L528.8737,1214.7786 A4.1667,4.1667 0 0 1 533.0404,1210.612" fill="#E9ECEF" style="stroke:#868E96;stroke-width:1.0417;"/><rect fill="none" height="148.7956" rx="4.1667" ry="4.1667" style="stroke:#59B6EC;stroke-width:1.0417;" width="448.1791" x="528.8737" y="1210.612"/><text fill="#033C73" font-family="'Verdana'" font-size="12.5" font-weight="bold" lengthAdjust="spacing" textLength="18.6951" x="549.707" y="1228.4648">alt</text><text fill="#343A40" font-family="'Verdana'" font-size="12.5" font-weight="bold" lengthAdjust="spacing" textLength="65.9424" x="625.6938" y="1229.5064">[success]</text><g class="message" data-entity-1="part4" data-entity-2="part3" id="msg15"><polygon fill="#2FA4E7" points="677.1708,1274.056,666.7542,1278.2227,677.1708,1282.3893,673.0042,1278.2227" style="stroke:#2FA4E7;stroke-width:1.0417;"/><line style="stroke:#2FA4E7;stroke-width:2.0833;stroke-dasharray:2.0833,2.0833;" x1="670.9208" x2="878.3437" y1="1278.2227" y2="1278.2227"/><text fill="#343A40" font-family="'Verdana'" font-size="12.5" lengthAdjust="spacing" textLength="63.3484" x="688.6292" y="1267.983">mp4 URLs</text></g><line style="stroke:#59B6EC;stroke-width:1.0417;stroke-dasharray:2.0833,2.0833;" x1="528.8737" x2="977.0528" y1="1287.5977" y2="1287.5977"/><text fill="#343A40" font-family="'Verdana'" font-size="12.5" font-weight="bold" lengthAdjust="spacing" textLength="126.3123" x="539.2904" y="1304.4088">[transient failure]</text><path d="M592.7083,1322.9818 L592.7083,1349.0234 A4.1667,4.1667 0 0 0 596.875,1353.1901 L721.875,1353.1901 A4.1667,4.1667 0 0 0 726.0417,1349.0234 L726.0417,1329.2318 L715.625,1318.8151 L596.875,1318.8151 A4.1667,4.1667 0 0 0 592.7083,1322.9818" fill="url(#g16kmkmzz4tko52)" style="stroke:#033C73;stroke-width:1.0417;"/><path d="M715.625,1318.8151 L715.625,1327.1484 A2.0833,2.0833 0 0 0 717.7083,1329.2318 L726.0417,1329.2318 L715.625,1318.8151" fill="url(#g16kmkmzz4tko52)" style="stroke:#033C73;stroke-width:1.0417;"/><text fill="#FFFFFF" font-family="'Verdana'" font-size="12.5" lengthAdjust="spacing" textLength="101.4404" x="604.1667" y="1340.8346">wait 2s, 4s, 8s...</text><g class="message" data-entity-1="part3" data-entity-2="part2" id="msg16"><polygon fill="#2FA4E7" points="370.3328,1401.0417,359.9162,1405.2083,370.3328,1409.375,366.1662,1405.2083" style="stroke:#2FA4E7;stroke-width:1.0417;"/><line style="stroke:#2FA4E7;stroke-width:2.0833;stroke-dasharray:2.0833,2.0833;" x1="364.0828" x2="659.4625" y1="1405.2083" y2="1405.2083"/><text fill="#343A40" font-family="'Verdana'" font-size="12.5" lengthAdjust="spacing" textLength="261.0046" x="381.7912" y="1394.9687">Map&lt;quality, url&gt; | empty on final failure</text></g><path d="M250.3113,1420.8333 L326.947,1420.8333 L326.947,1437.4674 L316.5304,1447.8841 L246.1446,1447.8841 L246.1446,1425 A4.1667,4.1667 0 0 1 250.3113,1420.8333" fill="#E9ECEF" style="stroke:#868E96;stroke-width:1.0417;"/><rect fill="none" height="90.4948" rx="4.1667" ry="4.1667" style="stroke:#59B6EC;stroke-width:1.0417;" width="800.9115" x="246.1446" y="1420.8333"/><text fill="#033C73" font-family="'Verdana'" font-size="12.5" font-weight="bold" lengthAdjust="spacing" textLength="23.5107" x="266.9779" y="1438.6861">opt</text><text fill="#343A40" font-family="'Verdana'" font-size="12.5" font-weight="bold" lengthAdjust="spacing" textLength="141.1133" x="347.7804" y="1439.7278">[decode succeeded]</text><g class="message" data-entity-1="part2" data-entity-2="part5" id="msg17"><polygon fill="#2FA4E7" points="994.3461,1498.8281,1004.7628,1502.9948,994.3461,1507.1615,998.5128,1502.9948" style="stroke:#2FA4E7;stroke-width:1.0417;"/><line style="stroke:#2FA4E7;stroke-width:2.0833;" x1="358.8745" x2="1000.5961" y1="1502.9948" y2="1502.9948"/><text fill="#343A40" font-family="'Verdana'" font-size="12.5" lengthAdjust="spacing" textLength="139.8193" x="371.3745" y="1478.2043">UPDATE mp4_link = ?,</text><text fill="#343A40" font-family="'Verdana'" font-size="12.5" lengthAdjust="spacing" textLength="194.9097" x="371.3745" y="1492.7551">mp4_link_decoded_at = NOW()</text></g><g class="message" data-entity-1="part2" data-entity-2="part1" id="msg18"><polygon fill="#2FA4E7" points="142.3431,1552.9622,131.9265,1557.1289,142.3431,1561.2956,138.1765,1557.1289" style="stroke:#2FA4E7;stroke-width:1.0417;"/><line style="stroke:#2FA4E7;stroke-width:2.0833;stroke-dasharray:2.0833,2.0833;" x1="136.0931" x2="352.6245" y1="1557.1289" y2="1557.1289"/><text fill="#343A40" font-family="'Verdana'" font-size="12.5" lengthAdjust="spacing" textLength="31.1951" x="153.8015" y="1546.8892">done</text></g><?plantuml-src lLJHJjim57ttLzmLQMetYXXiqbHH6BHbe8N2cW0lbIgJt1AhgHri1uQqXtt4ld1Vickd3MqfsbwsL54g-zpZU-uzrwziYbE467MH8PVCJ8JCkUPJkE7nv5QhGYOTbIaD6ySzzrj06BmhKCPugBLwY58HJoGQ0pkCMM4pXAEA0I9k9WP-_VW9KHJ00CSQJGglwP_LZumHdnMnoBcqK0jpBUGjV0hZ51FAAga1Dn1sJc0Z4BUfFSeAN8wuuDgW3b7VYnWz-Y9SHbo915KNOvKiuxvSTSCPRSYpgPBBOLzK8YRGwVOzcBupR4Tfdh64Mtx33KBjx37y6dXCzsW6-QmH9MFjDkXIRUzRBZGcWP1KYJhUetwSRpM5j9GKpvfJima9ZdcHMNYNDg3TPimfR-wJ96Yjuwet68-jkESMdMn6E49J7Yq8Uq6l4y4RE1wSdy74YHbXBWnLONJFjI2DGtbzqXlqO9g_7sL41wSXzCyZw5y6mL027FQxrTueyGLCHjp27g6kwmremca_wWsk3WCuW9Fpoy5G1gTdfn5ys6QKGtEUU22CtSCoRPYTRVOPuoHKAfZlk6CC0tga8ZsAgbJ6P-gs1RN-2XAicfUanZ2ZLgJKW-TacL8vZCd4oECKLjBm2FUKbVEMQ46fjUwBvkhSg61LjHsoMlLX5EvCqeAFJMCndv5K6BVNV3gY70AgBbmE0hF2D2_S6S_txWgU2Vku2ONEzYjSWikPhEZm3hYyw1v62zrjmy7cKAvhQBjig2T1cJ3tUYyHbNCWLKH9P0k7EhDvUzC87tD1WreE6BdRSBfJvgQ6jx2xFHKIr7XiqAupzIh3F_3qWf_BeETkVzcuOv_Sec-N7RMyp_vifg5y43OjhxyjTzDIRUfJ_iqj2AHBOCUKhLZJOd-qhnaewOykD8ABXjt62txark8qjwk6TDDdYZYcQxjQMsFKPnRresOrbqOWtPEp79OedkPtHlB0XILPc_2UtezcQslhYOwyDl-olnW1-0vEJQbVIBBOOWPhvq9Lual1IBR__mFp6m00?></g></svg>